<svg xmlns="http://www.w3.org/2000/svg" xmlns:xlink="http://www.w3.org/1999/xlink" viewBox="0 0 176.81 121.29"><defs><style>.cls-1{fill:url(#New_Gradient_Swatch_2);}.cls-2{fill:#f83d1c;}.cls-3{fill:url(#linear-gradient);}.cls-4{fill:#1d1d1b;}.cls-5{fill:url(#linear-gradient-2);}.cls-6{fill:url(#linear-gradient-3);}.cls-7{fill:url(#linear-gradient-4);}.cls-8{fill:url(#linear-gradient-5);}.cls-9{fill:url(#linear-gradient-6);}.cls-10{fill:url(#linear-gradient-7);}</style><linearGradient id="New_Gradient_Swatch_2" x1="47.19" y1="18.39" x2="133.71" y2="104.91" gradientUnits="userSpaceOnUse"><stop offset="0" stop-color="#f83d1c"/><stop offset="1" stop-color="#c72312"/></linearGradient><linearGradient id="linear-gradient" x1="-1.87" y1="-76.01" x2="37.69" y2="167" gradientTransform="translate(-0.12 -13.36) rotate(-1.81)" gradientUnits="userSpaceOnUse"><stop offset="0" stop-color="#fff"/><stop offset="0.51" stop-color="#fcee21"/><stop offset="1" stop-color="#f7931e"/></linearGradient><linearGradient id="linear-gradient-2" x1="17.54" y1="-78.35" x2="56.86" y2="163.22" xlink:href="#linear-gradient"/><linearGradient id="linear-gradient-3" x1="44.2" y1="-83.1" x2="83.6" y2="158.96" xlink:href="#linear-gradient"/><linearGradient id="linear-gradient-4" x1="65.36" y1="-86.65" x2="104.75" y2="155.35" xlink:href="#linear-gradient"/><linearGradient id="linear-gradient-5" x1="91.63" y1="-91.02" x2="131.04" y2="151.04" xlink:href="#linear-gradient"/><linearGradient id="linear-gradient-6" x1="110.18" y1="-94.63" x2="149.69" y2="148.08" xlink:href="#linear-gradient"/><linearGradient id="linear-gradient-7" x1="131.34" y1="-98.32" x2="170.9" y2="144.69" xlink:href="#linear-gradient"/></defs><g id="Layer_2" data-name="Layer 2"><g id="Layer_1-2" data-name="Layer 1"><path d="M76.6,23c.06,0,.12,0,.12-.08a.12.12,0,0,0-.12-.11.1.1,0,0,0-.11.11C76.49,22.93,76.53,23,76.6,23Z"/><path d="M80.36,23c.11,0,.21-.07.21-.15a.2.2,0,0,0-.21-.19.19.19,0,0,0-.2.19C80.16,23,80.25,23,80.36,23Z"/><path d="M84.14,23.1a.26.26,0,0,0,.28-.23.28.28,0,0,0-.28-.26.29.29,0,0,0-.3.26C83.84,23,84,23.1,84.14,23.1Z"/><path d="M87.9,23.13a.31.31,0,0,0,.33-.26c0-.16-.15-.26-.33-.26s-.32.1-.32.26A.3.3,0,0,0,87.9,23.13Z"/><path d="M91.66,23.13c.2,0,.35-.11.35-.26a.32.32,0,0,0-.35-.29.32.32,0,0,0-.34.29C91.32,23,91.47,23.13,91.66,23.13Z"/><path d="M95.43,23.13c.19,0,.35-.11.35-.26a.36.36,0,0,0-.7,0C95.08,23,95.24,23.13,95.43,23.13Z"/><path d="M99.2,23.12a.26.26,0,1,0-.31-.25A.29.29,0,0,0,99.2,23.12Z"/><path d="M103,23.05c.14,0,.25-.08.25-.18a.24.24,0,0,0-.25-.21.23.23,0,0,0-.23.21A.21.21,0,0,0,103,23.05Z"/><path d="M106.73,23c.11,0,.19-.06.19-.13a.18.18,0,0,0-.19-.16.17.17,0,0,0-.17.16C106.56,22.94,106.63,23,106.73,23Z"/><path d="M110.51,22.93s0,0,0-.06a.06.06,0,0,0,0-.06s-.07,0-.07.06A.09.09,0,0,0,110.51,22.93Z"/><path d="M69.06,26.06a.17.17,0,0,0,.17-.15c0-.08-.07-.13-.17-.13s-.17,0-.17.13A.17.17,0,0,0,69.06,26.06Z"/><path d="M72.82,26.18a.3.3,0,0,0,.33-.27.31.31,0,0,0-.33-.26.32.32,0,0,0-.32.26A.31.31,0,0,0,72.82,26.18Z"/><path d="M76.6,26.27a.41.41,0,0,0,.44-.36.45.45,0,0,0-.88,0A.41.41,0,0,0,76.6,26.27Z"/><path d="M80.36,26.34a.49.49,0,0,0,.53-.43.54.54,0,1,0-.53.43Z"/><path d="M84.14,26.4a.49.49,0,1,0,0-1,.5.5,0,1,0,0,1Z"/><path d="M87.9,26.45a.6.6,0,0,0,.64-.54.66.66,0,0,0-1.29,0A.6.6,0,0,0,87.9,26.45Z"/><path d="M91.66,26.45a.62.62,0,0,0,.68-.54.69.69,0,1,0-.68.54Z"/><path d="M95.43,26.45a.6.6,0,0,0,.65-.54.67.67,0,0,0-1.3,0A.6.6,0,0,0,95.43,26.45Z"/><path d="M99.2,26.44a.6.6,0,0,0,.64-.53.66.66,0,0,0-1.28,0A.6.6,0,0,0,99.2,26.44Z"/><path d="M103,26.37a.52.52,0,0,0,.57-.46.52.52,0,0,0-.57-.45.51.51,0,0,0-.55.45A.5.5,0,0,0,103,26.37Z"/><path d="M106.73,26.3c.29,0,.49-.15.49-.39a.44.44,0,0,0-.49-.39.45.45,0,0,0-.48.39A.43.43,0,0,0,106.73,26.3Z"/><path d="M110.51,26.22a.33.33,0,0,0,.37-.31.34.34,0,0,0-.37-.3.36.36,0,0,0-.39.3A.35.35,0,0,0,110.51,26.22Z"/><path d="M114.28,26.11a.2.2,0,1,0,0-.39c-.13,0-.25.08-.25.19A.23.23,0,0,0,114.28,26.11Z"/><path d="M118,26c.06,0,.1,0,.1-.07a.1.1,0,0,0-.1-.08.1.1,0,0,0-.09.08C118,26,118,26,118,26Z"/><path d="M61.52,29.05c.06,0,.1,0,.1-.07s0-.08-.1-.08a.09.09,0,0,0-.09.08S61.48,29.05,61.52,29.05Z"/><path d="M65.29,29.23a.3.3,0,0,0,.32-.25.29.29,0,0,0-.32-.27A.29.29,0,0,0,65,29,.3.3,0,0,0,65.29,29.23Z"/><path d="M69.06,29.35a.43.43,0,0,0,.47-.37.43.43,0,0,0-.47-.39.44.44,0,0,0-.47.39A.43.43,0,0,0,69.06,29.35Z"/><path d="M72.82,29.47a.51.51,0,1,0,0-1,.51.51,0,1,0,0,1Z"/><path d="M76.6,29.57a.61.61,0,1,0,0-1.19.61.61,0,1,0,0,1.19Z"/><path d="M80.36,29.67a.71.71,0,1,0,0-1.39.71.71,0,1,0,0,1.39Z"/><path d="M84.14,29.71a.75.75,0,1,0,0-1.48.76.76,0,1,0,0,1.48Z"/><path d="M87.9,29.76a.88.88,0,0,0,1-.78,1,1,0,1,0-1,.78Z"/><path d="M91.66,29.76a.8.8,0,1,0,0-1.57.8.8,0,1,0,0,1.57Z"/><path d="M95.43,29.76a.88.88,0,0,0,1-.78.87.87,0,0,0-1-.78.88.88,0,0,0-1,.78A.89.89,0,0,0,95.43,29.76Z"/><path d="M99.2,29.73a.77.77,0,1,0-.92-.75A.85.85,0,0,0,99.2,29.73Z"/><path d="M103,29.69a.73.73,0,1,0-.88-.71A.82.82,0,0,0,103,29.69Z"/><path d="M106.73,29.62a.67.67,0,1,0,0-1.3A.72.72,0,0,0,106,29,.72.72,0,0,0,106.73,29.62Z"/><path d="M110.51,29.51a.61.61,0,0,0,.67-.53.62.62,0,0,0-.67-.55.61.61,0,0,0-.67.55A.61.61,0,0,0,110.51,29.51Z"/><path d="M114.28,29.41a.51.51,0,0,0,.55-.43.5.5,0,0,0-.55-.46.52.52,0,0,0-.57.46C113.71,29.21,114,29.41,114.28,29.41Z"/><path d="M118,29.29a.34.34,0,0,0,.37-.31.33.33,0,0,0-.37-.31c-.22,0-.38.12-.38.31A.34.34,0,0,0,118,29.29Z"/><path d="M121.81,29.14A.19.19,0,0,0,122,29a.17.17,0,0,0-.19-.16c-.11,0-.21.07-.21.16S121.7,29.14,121.81,29.14Z"/><path d="M57.75,32.15A.13.13,0,0,0,57.9,32a.14.14,0,0,0-.15-.11.13.13,0,0,0-.13.11A.13.13,0,0,0,57.75,32.15Z"/><path d="M61.52,32.32c.21,0,.38-.12.38-.3a.36.36,0,0,0-.38-.3.34.34,0,0,0-.36.3A.32.32,0,0,0,61.52,32.32Z"/><path d="M65.29,32.49a.47.47,0,1,0,0-.91.46.46,0,1,0,0,.91Z"/><path d="M69.06,32.64a.62.62,0,1,0-.74-.62A.68.68,0,0,0,69.06,32.64Z"/><path d="M72.82,32.78a.83.83,0,0,0,.9-.76.9.9,0,1,0-.9.76Z"/><path d="M76.6,32.85a.93.93,0,0,0,1-.83,1.05,1.05,0,0,0-2.05,0A.94.94,0,0,0,76.6,32.85Z"/><path d="M80.36,32.94A.93.93,0,1,0,79.24,32,1,1,0,0,0,80.36,32.94Z"/><path d="M84.14,33a1.06,1.06,0,0,0,1.17-1,1.2,1.2,0,1,0-1.17,1Z"/><path d="M87.9,33a1,1,0,1,0-1.23-1A1.13,1.13,0,0,0,87.9,33Z"/><path d="M91.66,33.05a1,1,0,1,0-1.25-1A1.15,1.15,0,0,0,91.66,33.05Z"/><path d="M95.43,33a1,1,0,1,0-1.24-1A1.15,1.15,0,0,0,95.43,33Z"/><path d="M99.2,33A1,1,0,1,0,98,32,1.12,1.12,0,0,0,99.2,33Z"/><path d="M103,33a1,1,0,1,0,0-1.88A1,1,0,1,0,103,33Z"/><path d="M106.73,32.9a.89.89,0,1,0,0-1.74.89.89,0,1,0,0,1.74Z"/><path d="M110.51,32.82a.81.81,0,1,0-1-.8A.89.89,0,0,0,110.51,32.82Z"/><path d="M114.28,32.69a.74.74,0,0,0,.82-.67.85.85,0,0,0-1.65,0A.74.74,0,0,0,114.28,32.69Z"/><path d="M118,32.57a.61.61,0,0,0,.65-.55.59.59,0,0,0-.65-.52.6.6,0,0,0-.66.52A.62.62,0,0,0,118,32.57Z"/><path d="M121.81,32.41a.43.43,0,0,0,.47-.39c0-.21-.21-.36-.47-.36s-.48.15-.48.36A.44.44,0,0,0,121.81,32.41Z"/><path d="M125.57,32.25a.22.22,0,1,0,0-.44.22.22,0,1,0,0,.44Z"/><path d="M129.34,32.05s0,0,0,0h0s0,0,0,0S129.31,32.05,129.34,32.05Z"/><path d="M54,35.21a.14.14,0,0,0,.15-.12c0-.06-.07-.11-.15-.11a.13.13,0,0,0-.14.11A.13.13,0,0,0,54,35.21Z"/><path d="M57.75,35.4c.23,0,.39-.13.39-.31a.36.36,0,0,0-.39-.32.37.37,0,0,0-.38.32A.35.35,0,0,0,57.75,35.4Z"/><path d="M61.52,35.58a.56.56,0,0,0,.62-.49c0-.29-.27-.49-.62-.49a.54.54,0,0,0-.6.49A.55.55,0,0,0,61.52,35.58Z"/><path d="M65.29,35.77a.78.78,0,0,0,.83-.68.84.84,0,0,0-1.65,0A.78.78,0,0,0,65.29,35.77Z"/><path d="M69.06,35.89a.83.83,0,1,0,0-1.62.83.83,0,1,0,0,1.62Z"/><path d="M72.82,36a1,1,0,1,0-1.15-.93A1.06,1.06,0,0,0,72.82,36Z"/><path d="M76.6,36.14a1.18,1.18,0,0,0,1.27-1,1.17,1.17,0,0,0-1.27-1,1.19,1.19,0,0,0-1.29,1A1.2,1.2,0,0,0,76.6,36.14Z"/><path d="M80.36,36.21a1.14,1.14,0,1,0,0-2.24,1.14,1.14,0,1,0,0,2.24Z"/><path d="M84.14,36.26a1.31,1.31,0,0,0,1.43-1.17,1.47,1.47,0,1,0-1.43,1.17Z"/><path d="M87.9,36.28a1.36,1.36,0,0,0,1.49-1.19,1.39,1.39,0,0,0-1.49-1.21,1.36,1.36,0,0,0-1.48,1.21A1.34,1.34,0,0,0,87.9,36.28Z"/><path d="M91.66,36.31a1.39,1.39,0,0,0,1.51-1.22,1.54,1.54,0,0,0-3,0A1.38,1.38,0,0,0,91.66,36.31Z"/><path d="M95.43,36.29a1.36,1.36,0,0,0,1.5-1.2,1.52,1.52,0,0,0-3,0A1.35,1.35,0,0,0,95.43,36.29Z"/><path d="M99.2,36.28a1.35,1.35,0,0,0,1.47-1.19,1.49,1.49,0,0,0-2.93,0A1.34,1.34,0,0,0,99.2,36.28Z"/><path d="M103,36.23a1.16,1.16,0,1,0-1.39-1.14A1.29,1.29,0,0,0,103,36.23Z"/><path d="M106.73,36.16a1.2,1.2,0,0,0,1.32-1.07,1.35,1.35,0,0,0-2.63,0A1.2,1.2,0,0,0,106.73,36.16Z"/><path d="M110.51,36.08a1,1,0,1,0-1.21-1A1.12,1.12,0,0,0,110.51,36.08Z"/><path d="M114.28,36a.89.89,0,1,0-1.08-.88A1,1,0,0,0,114.28,36Z"/><path d="M118,35.83a.84.84,0,0,0,.9-.74.92.92,0,1,0-.9.74Z"/><path d="M121.81,35.69a.62.62,0,1,0-.73-.6A.68.68,0,0,0,121.81,35.69Z"/><path d="M125.57,35.49a.46.46,0,0,0,.51-.4.51.51,0,0,0-1,0A.46.46,0,0,0,125.57,35.49Z"/><path d="M129.34,35.3a.24.24,0,0,0,.26-.21.25.25,0,0,0-.26-.22.25.25,0,0,0-.26.22A.23.23,0,0,0,129.34,35.3Z"/><path d="M133.11,35.12l0,0a.15.15,0,0,0,0,0s0,0,0,0S133.1,35.12,133.11,35.12Z"/><path d="M50.22,38.22a.08.08,0,1,0,0-.15.08.08,0,0,0-.08.09A.08.08,0,0,0,50.22,38.22Z"/><path d="M54,38.44c.21,0,.39-.13.39-.28a.35.35,0,0,0-.39-.32.34.34,0,0,0-.37.32C53.62,38.31,53.79,38.44,54,38.44Z"/><path d="M57.75,38.65a.57.57,0,0,0,.63-.49.58.58,0,0,0-.63-.52.56.56,0,0,0-.6.52A.56.56,0,0,0,57.75,38.65Z"/><path d="M61.52,38.83a.77.77,0,0,0,.86-.67.86.86,0,0,0-1.7,0A.77.77,0,0,0,61.52,38.83Z"/><path d="M65.29,39a1,1,0,0,0,1.06-.85,1.08,1.08,0,0,0-2.11,0A1,1,0,0,0,65.29,39Z"/><path d="M69.06,39.14a1.13,1.13,0,0,0,1.23-1,1.25,1.25,0,0,0-2.46,0A1.13,1.13,0,0,0,69.06,39.14Z"/><path d="M72.82,39.25a1.13,1.13,0,1,0,0-2.21,1.13,1.13,0,1,0,0,2.21Z"/><path d="M76.6,39.35a1.23,1.23,0,1,0-1.5-1.19A1.38,1.38,0,0,0,76.6,39.35Z"/><path d="M80.36,39.43a1.32,1.32,0,1,0,0-2.57,1.31,1.31,0,1,0,0,2.57Z"/><path d="M84.14,39.49a1.38,1.38,0,1,0-1.67-1.33A1.53,1.53,0,0,0,84.14,39.49Z"/><path d="M87.9,39.53a1.57,1.57,0,0,0,1.71-1.37,1.74,1.74,0,0,0-3.42,0A1.56,1.56,0,0,0,87.9,39.53Z"/><path d="M91.66,39.53a1.57,1.57,0,0,0,1.72-1.37,1.76,1.76,0,1,0-1.72,1.37Z"/><path d="M95.43,39.53a1.58,1.58,0,0,0,1.73-1.37,1.76,1.76,0,0,0-3.45,0A1.57,1.57,0,0,0,95.43,39.53Z"/><path d="M99.2,39.52a1.4,1.4,0,1,0,0-2.74,1.57,1.57,0,0,0-1.7,1.38A1.56,1.56,0,0,0,99.2,39.52Z"/><path d="M103,39.47a1.35,1.35,0,1,0-1.62-1.31A1.5,1.5,0,0,0,103,39.47Z"/><path d="M106.73,39.4a1.29,1.29,0,1,0-1.54-1.24A1.43,1.43,0,0,0,106.73,39.4Z"/><path d="M110.51,39.32a1.2,1.2,0,1,0-1.44-1.16A1.33,1.33,0,0,0,110.51,39.32Z"/><path d="M114.28,39.2a1.07,1.07,0,1,0,0-2.1,1.08,1.08,0,1,0,0,2.1Z"/><path d="M118,39.07a.95.95,0,1,0-1.14-.91A1.05,1.05,0,0,0,118,39.07Z"/><path d="M121.81,38.92a.88.88,0,0,0,.93-.76.85.85,0,0,0-.93-.77.87.87,0,0,0-1,.77A.9.9,0,0,0,121.81,38.92Z"/><path d="M125.57,38.75a.69.69,0,0,0,.75-.59.76.76,0,0,0-1.49,0A.69.69,0,0,0,125.57,38.75Z"/><path d="M129.34,38.55a.46.46,0,0,0,.5-.39.46.46,0,0,0-.5-.42.47.47,0,0,0-.51.42C128.83,38.36,129.07,38.55,129.34,38.55Z"/><path d="M133.11,38.35a.23.23,0,0,0,.23-.19c0-.13-.11-.19-.23-.19s-.22.06-.22.19A.21.21,0,0,0,133.11,38.35Z"/><path d="M50.22,41.47a.29.29,0,0,0,.31-.27.28.28,0,0,0-.31-.26.29.29,0,0,0-.31.26A.3.3,0,0,0,50.22,41.47Z"/><path d="M54,41.67a.51.51,0,0,0,.56-.47.5.5,0,0,0-.56-.45.52.52,0,0,0-.57.45A.53.53,0,0,0,54,41.67Z"/><path d="M57.75,41.87a.77.77,0,0,0,.84-.67.85.85,0,0,0-1.66,0A.76.76,0,0,0,57.75,41.87Z"/><path d="M61.52,42.06a.88.88,0,1,0-1-.86A1,1,0,0,0,61.52,42.06Z"/><path d="M65.29,42.22a1,1,0,1,0-1.25-1A1.16,1.16,0,0,0,65.29,42.22Z"/><path d="M69.06,42.38a1.19,1.19,0,1,0-1.43-1.18A1.32,1.32,0,0,0,69.06,42.38Z"/><path d="M72.82,42.48a1.31,1.31,0,1,0-1.57-1.28A1.46,1.46,0,0,0,72.82,42.48Z"/><path d="M76.6,42.58a1.41,1.41,0,1,0-1.71-1.38A1.56,1.56,0,0,0,76.6,42.58Z"/><path d="M80.36,42.66a1.49,1.49,0,1,0-1.79-1.46A1.66,1.66,0,0,0,80.36,42.66Z"/><path d="M84.14,42.72a1.55,1.55,0,1,0-1.88-1.52A1.72,1.72,0,0,0,84.14,42.72Z"/><path d="M87.9,42.77A1.59,1.59,0,1,0,86,41.2,1.77,1.77,0,0,0,87.9,42.77Z"/><path d="M91.66,42.77a1.6,1.6,0,1,0-1.91-1.57A1.77,1.77,0,0,0,91.66,42.77Z"/><path d="M95.43,42.77a1.6,1.6,0,1,0-1.92-1.57A1.77,1.77,0,0,0,95.43,42.77Z"/><path d="M99.2,42.74a1.75,1.75,0,0,0,1.91-1.54,1.95,1.95,0,0,0-3.81,0A1.74,1.74,0,0,0,99.2,42.74Z"/><path d="M103,42.7a1.52,1.52,0,1,0-1.83-1.5A1.69,1.69,0,0,0,103,42.7Z"/><path d="M106.73,42.63A1.46,1.46,0,1,0,105,41.2,1.63,1.63,0,0,0,106.73,42.63Z"/><path d="M110.51,42.53a1.36,1.36,0,1,0-1.65-1.33A1.53,1.53,0,0,0,110.51,42.53Z"/><path d="M114.28,42.43a1.39,1.39,0,0,0,1.49-1.23,1.53,1.53,0,0,0-3,0A1.39,1.39,0,0,0,114.28,42.43Z"/><path d="M118,42.29a1.11,1.11,0,1,0,0-2.17,1.11,1.11,0,1,0,0,2.17Z"/><path d="M121.81,42.14a1,1,0,1,0-1.17-.94A1.06,1.06,0,0,0,121.81,42.14Z"/><path d="M125.57,42a.77.77,0,1,0-.92-.76A.86.86,0,0,0,125.57,42Z"/><path d="M129.34,41.77a.58.58,0,1,0,0-1.14.58.58,0,1,0,0,1.14Z"/><path d="M133.11,41.57a.37.37,0,1,0,0-.72.37.37,0,1,0,0,.72Z"/><path d="M136.89,41.33a.14.14,0,0,0,.14-.13c0-.08-.07-.11-.14-.11s-.15,0-.15.11A.13.13,0,0,0,136.89,41.33Z"/><path d="M46.47,44.4a.15.15,0,0,0,.16-.15.17.17,0,0,0-.16-.13c-.11,0-.19.08-.19.13S46.36,44.4,46.47,44.4Z"/><path d="M50.22,44.63c.27,0,.48-.15.48-.38a.45.45,0,0,0-.48-.38.44.44,0,0,0-.46.38A.41.41,0,0,0,50.22,44.63Z"/><path d="M54,44.85a.68.68,0,0,0,.75-.6.69.69,0,0,0-.75-.59.68.68,0,0,0-.74.59A.67.67,0,0,0,54,44.85Z"/><path d="M57.75,45.07a.82.82,0,1,0-1-.82A.92.92,0,0,0,57.75,45.07Z"/><path d="M61.52,45.26a1,1,0,1,0-1.23-1A1.14,1.14,0,0,0,61.52,45.26Z"/><path d="M65.29,45.41a1.32,1.32,0,0,0,1.44-1.16,1.33,1.33,0,0,0-1.44-1.16,1.31,1.31,0,0,0-1.42,1.16A1.3,1.3,0,0,0,65.29,45.41Z"/><path d="M69.06,45.56a1.32,1.32,0,1,0-1.59-1.31A1.47,1.47,0,0,0,69.06,45.56Z"/><path d="M72.82,45.69a1.63,1.63,0,0,0,1.77-1.44,1.8,1.8,0,0,0-3.51,0A1.62,1.62,0,0,0,72.82,45.69Z"/><path d="M76.6,45.78a1.56,1.56,0,1,0-1.89-1.53A1.73,1.73,0,0,0,76.6,45.78Z"/><path d="M80.36,45.86a1.63,1.63,0,1,0-2-1.61A1.81,1.81,0,0,0,80.36,45.86Z"/><path d="M84.14,45.91a1.68,1.68,0,1,0-2-1.66A1.87,1.87,0,0,0,84.14,45.91Z"/><path d="M87.9,46A1.92,1.92,0,0,0,90,44.25a2.13,2.13,0,0,0-4.16,0A1.92,1.92,0,0,0,87.9,46Z"/><path d="M91.66,46a2,2,0,0,0,2.12-1.71,1.94,1.94,0,0,0-2.12-1.69,1.74,1.74,0,1,0,0,3.4Z"/><path d="M95.43,46a1.94,1.94,0,0,0,2.1-1.71,1.94,1.94,0,0,0-2.1-1.68,1.73,1.73,0,1,0,0,3.39Z"/><path d="M99.2,45.94a1.71,1.71,0,1,0-2.07-1.69A1.9,1.9,0,0,0,99.2,45.94Z"/><path d="M103,45.88a1.66,1.66,0,1,0-2-1.63A1.85,1.85,0,0,0,103,45.88Z"/><path d="M106.73,45.83a1.6,1.6,0,1,0-1.93-1.58A1.78,1.78,0,0,0,106.73,45.83Z"/><path d="M110.51,45.74a1.5,1.5,0,1,0-1.8-1.49A1.66,1.66,0,0,0,110.51,45.74Z"/><path d="M114.28,45.61a1.39,1.39,0,1,0,0-2.72,1.39,1.39,0,1,0,0,2.72Z"/><path d="M118,45.49a1.39,1.39,0,0,0,1.5-1.24,1.38,1.38,0,0,0-1.5-1.2,1.39,1.39,0,0,0-1.51,1.2A1.41,1.41,0,0,0,118,45.49Z"/><path d="M121.81,45.35a1.11,1.11,0,1,0-1.33-1.1A1.23,1.23,0,0,0,121.81,45.35Z"/><path d="M125.57,45.16a.92.92,0,1,0,0-1.8.92.92,0,1,0,0,1.8Z"/><path d="M129.34,45a.82.82,0,0,0,.88-.73.91.91,0,0,0-1.76,0A.82.82,0,0,0,129.34,45Z"/><path d="M133.11,44.74a.55.55,0,0,0,.6-.49.54.54,0,0,0-.6-.47.55.55,0,0,0-.61.47A.56.56,0,0,0,133.11,44.74Z"/><path d="M136.89,44.53a.3.3,0,0,0,.3-.28.29.29,0,0,0-.3-.25c-.21,0-.33.12-.33.25A.29.29,0,0,0,136.89,44.53Z"/><path d="M140.64,44.26h0Z"/><path d="M46.47,47.58a.3.3,0,0,0,.32-.27.32.32,0,0,0-.32-.26.31.31,0,0,0-.33.26C46.14,47.47,46.28,47.58,46.47,47.58Z"/><path d="M50.22,47.82a.51.51,0,1,0,0-1,.51.51,0,1,0,0,1Z"/><path d="M54,48a.81.81,0,0,0,.9-.73.92.92,0,0,0-1.79,0A.81.81,0,0,0,54,48Z"/><path d="M57.75,48.25a1,1,0,1,0,0-1.88,1,1,0,1,0,0,1.88Z"/><path d="M61.52,48.43a1.13,1.13,0,1,0-1.36-1.12A1.25,1.25,0,0,0,61.52,48.43Z"/><path d="M65.29,48.6a1.31,1.31,0,1,0-1.57-1.29A1.45,1.45,0,0,0,65.29,48.6Z"/><path d="M69.06,48.74a1.46,1.46,0,1,0-1.74-1.43A1.62,1.62,0,0,0,69.06,48.74Z"/><path d="M72.82,48.86a1.57,1.57,0,1,0-1.9-1.55A1.75,1.75,0,0,0,72.82,48.86Z"/><path d="M76.6,49a1.67,1.67,0,1,0-2-1.64A1.86,1.86,0,0,0,76.6,49Z"/><path d="M80.36,49.05a1.76,1.76,0,1,0-2.11-1.74A2,2,0,0,0,80.36,49.05Z"/><path d="M84.14,49.09a1.81,1.81,0,1,0-2.2-1.78A2,2,0,0,0,84.14,49.09Z"/><path d="M87.9,49.13a1.84,1.84,0,1,0,0-3.61,2.05,2.05,0,0,0-2.23,1.79A2.06,2.06,0,0,0,87.9,49.13Z"/><path d="M91.66,49.13a2.06,2.06,0,0,0,2.24-1.82,2.28,2.28,0,0,0-4.47,0A2.06,2.06,0,0,0,91.66,49.13Z"/><path d="M95.43,49.13a2.07,2.07,0,0,0,2.25-1.82,2.29,2.29,0,0,0-4.48,0A2.05,2.05,0,0,0,95.43,49.13Z"/><path d="M99.2,49.11a2,2,0,0,0,2.21-1.8,2.25,2.25,0,1,0-2.21,1.8Z"/><path d="M103,49.07a1.79,1.79,0,1,0-2.15-1.76A2,2,0,0,0,103,49.07Z"/><path d="M106.73,49a1.7,1.7,0,1,0-2-1.67A1.89,1.89,0,0,0,106.73,49Z"/><path d="M110.51,48.91a1.62,1.62,0,1,0,0-3.17,1.62,1.62,0,1,0,0,3.17Z"/><path d="M114.28,48.82a1.53,1.53,0,1,0-1.85-1.51A1.71,1.71,0,0,0,114.28,48.82Z"/><path d="M118,48.67A1.38,1.38,0,1,0,118,46a1.38,1.38,0,1,0,0,2.71Z"/><path d="M121.81,48.52a1.36,1.36,0,0,0,1.46-1.21,1.5,1.5,0,0,0-2.93,0A1.37,1.37,0,0,0,121.81,48.52Z"/><path d="M125.57,48.33a1,1,0,1,0,0-2,1,1,0,1,0,0,2Z"/><path d="M129.34,48.14a.85.85,0,1,0-1-.83A.93.93,0,0,0,129.34,48.14Z"/><path d="M133.11,47.94a.73.73,0,0,0,.77-.63.71.71,0,0,0-.77-.6.7.7,0,0,0-.76.6A.72.72,0,0,0,133.11,47.94Z"/><path d="M136.89,47.69a.43.43,0,0,0,.45-.38.42.42,0,0,0-.45-.36c-.26,0-.48.16-.48.36A.44.44,0,0,0,136.89,47.69Z"/><path d="M140.64,47.44a.13.13,0,0,0,.14-.13c0-.07-.06-.11-.14-.11s-.14,0-.14.11A.13.13,0,0,0,140.64,47.44Z"/><path d="M42.69,50.47c.06,0,.12,0,.12-.08a.12.12,0,0,0-.24,0S42.63,50.47,42.69,50.47Z"/><path d="M46.47,50.74a.43.43,0,0,0,.44-.35.41.41,0,0,0-.44-.37.39.39,0,0,0-.44.37A.41.41,0,0,0,46.47,50.74Z"/><path d="M50.22,51a.69.69,0,0,0,.75-.59.76.76,0,0,0-1.49,0A.68.68,0,0,0,50.22,51Z"/><path d="M54,51.22a1,1,0,0,0,1-.83.94.94,0,0,0-1-.84.93.93,0,0,0-1,.84A.94.94,0,0,0,54,51.22Z"/><path d="M57.75,51.4a1.16,1.16,0,0,0,1.29-1,1.19,1.19,0,0,0-1.29-1,1.17,1.17,0,0,0-1.26,1A1.14,1.14,0,0,0,57.75,51.4Z"/><path d="M61.52,51.58A1.37,1.37,0,0,0,63,50.39a1.53,1.53,0,0,0-3,0A1.36,1.36,0,0,0,61.52,51.58Z"/><path d="M65.29,51.76a1.42,1.42,0,1,0,0-2.77,1.41,1.41,0,1,0,0,2.77Z"/><path d="M69.06,51.9a1.56,1.56,0,1,0-1.88-1.51A1.74,1.74,0,0,0,69.06,51.9Z"/><path d="M72.82,52a1.67,1.67,0,1,0-2-1.63A1.87,1.87,0,0,0,72.82,52Z"/><path d="M76.6,52.11a2,2,0,0,0,2.13-1.72,2.19,2.19,0,1,0-2.13,1.72Z"/><path d="M80.36,52.21a2.08,2.08,0,0,0,2.24-1.82,2.28,2.28,0,1,0-2.24,1.82Z"/><path d="M84.14,52.22a1.89,1.89,0,1,0-2.29-1.83A2.1,2.1,0,0,0,84.14,52.22Z"/><path d="M87.9,52.27a1.94,1.94,0,1,0-2.33-1.88A2.14,2.14,0,0,0,87.9,52.27Z"/><path d="M91.66,52.28a1.94,1.94,0,1,0-2.34-1.89A2.16,2.16,0,0,0,91.66,52.28Z"/><path d="M95.43,52.28a1.94,1.94,0,1,0-2.34-1.89A2.15,2.15,0,0,0,95.43,52.28Z"/><path d="M99.2,52.26a2.15,2.15,0,0,0,2.31-1.87,2.36,2.36,0,1,0-2.31,1.87Z"/><path d="M103,52.21a1.88,1.88,0,1,0-2.25-1.82A2.1,2.1,0,0,0,103,52.21Z"/><path d="M106.73,52.15a1.81,1.81,0,1,0,0-3.54,1.81,1.81,0,1,0,0,3.54Z"/><path d="M110.51,52.05a1.9,1.9,0,0,0,2.08-1.66,2.12,2.12,0,0,0-4.16,0A1.89,1.89,0,0,0,110.51,52.05Z"/><path d="M114.28,52a1.62,1.62,0,1,0-1.94-1.57A1.78,1.78,0,0,0,114.28,52Z"/><path d="M118,51.83a1.48,1.48,0,1,0-1.78-1.44A1.64,1.64,0,0,0,118,51.83Z"/><path d="M121.81,51.67a1.32,1.32,0,1,0-1.61-1.28A1.49,1.49,0,0,0,121.81,51.67Z"/><path d="M125.57,51.5A1.27,1.27,0,0,0,127,50.39a1.41,1.41,0,0,0-2.77,0A1.26,1.26,0,0,0,125.57,51.5Z"/><path d="M129.34,51.3a.95.95,0,1,0-1.14-.91A1.05,1.05,0,0,0,129.34,51.3Z"/><path d="M133.11,51.1a.74.74,0,1,0,0-1.45.74.74,0,1,0,0,1.45Z"/><path d="M136.89,50.86a.55.55,0,0,0,.58-.47.55.55,0,0,0-.58-.5.55.55,0,0,0-.59.5A.54.54,0,0,0,136.89,50.86Z"/><path d="M140.64,50.59a.26.26,0,0,0,.26-.2.24.24,0,0,0-.26-.22.23.23,0,0,0-.25.22A.24.24,0,0,0,140.64,50.59Z"/><path d="M42.69,53.61a.19.19,0,0,0,.21-.18.21.21,0,0,0-.42,0A.19.19,0,0,0,42.69,53.61Z"/><path d="M46.47,53.85a.49.49,0,0,0,.52-.42.48.48,0,0,0-.52-.43.49.49,0,0,0-.54.43A.5.5,0,0,0,46.47,53.85Z"/><path d="M50.22,54.13a.71.71,0,1,0,0-1.38.71.71,0,1,0,0,1.38Z"/><path d="M54,54.35a1,1,0,0,0,1.12-.92A1,1,0,0,0,54,52.51a1.06,1.06,0,0,0-1.13.92A1,1,0,0,0,54,54.35Z"/><path d="M57.75,54.56a1.29,1.29,0,0,0,1.38-1.13,1.4,1.4,0,1,0-1.38,1.13Z"/><path d="M61.52,54.73a1.32,1.32,0,1,0,0-2.58,1.32,1.32,0,1,0,0,2.58Z"/><path d="M65.29,54.88a1.49,1.49,0,1,0-1.79-1.45A1.65,1.65,0,0,0,65.29,54.88Z"/><path d="M69.06,55a1.63,1.63,0,1,0,0-3.19,1.63,1.63,0,1,0,0,3.19Z"/><path d="M72.82,55.15a1.76,1.76,0,1,0-2.11-1.72A1.95,1.95,0,0,0,72.82,55.15Z"/><path d="M76.6,55.25a1.86,1.86,0,1,0-2.24-1.82A2.06,2.06,0,0,0,76.6,55.25Z"/><path d="M80.36,55.31a1.92,1.92,0,1,0-2.31-1.88A2.12,2.12,0,0,0,80.36,55.31Z"/><path d="M84.14,55.36a2,2,0,1,0-2.37-1.93A2.19,2.19,0,0,0,84.14,55.36Z"/><path d="M87.9,55.38a2,2,0,1,0,0-3.91,2,2,0,1,0,0,3.91Z"/><path d="M91.66,55.4a2,2,0,1,0-2.41-2A2.23,2.23,0,0,0,91.66,55.4Z"/><path d="M95.43,55.4a2,2,0,1,0-2.41-2A2.23,2.23,0,0,0,95.43,55.4Z"/><path d="M99.2,55.38a2,2,0,1,0-2.38-2A2.21,2.21,0,0,0,99.2,55.38Z"/><path d="M103,55.34a1.95,1.95,0,1,0-2.33-1.91A2.15,2.15,0,0,0,103,55.34Z"/><path d="M106.73,55.27a1.88,1.88,0,1,0-2.26-1.84A2.1,2.1,0,0,0,106.73,55.27Z"/><path d="M110.51,55.19a1.8,1.8,0,1,0,0-3.52,1.8,1.8,0,1,0,0,3.52Z"/><path d="M114.28,55.09a1.69,1.69,0,1,0-2-1.66A1.88,1.88,0,0,0,114.28,55.09Z"/><path d="M118,55a1.72,1.72,0,0,0,1.89-1.53,1.93,1.93,0,0,0-3.78,0A1.73,1.73,0,0,0,118,55Z"/><path d="M121.81,54.8a1.4,1.4,0,1,0-1.69-1.37A1.56,1.56,0,0,0,121.81,54.8Z"/><path d="M125.57,54.63a1.35,1.35,0,0,0,1.49-1.2,1.52,1.52,0,0,0-3,0A1.35,1.35,0,0,0,125.57,54.63Z"/><path d="M129.34,54.43a1.12,1.12,0,0,0,1.24-1,1.26,1.26,0,0,0-2.48,0A1.12,1.12,0,0,0,129.34,54.43Z"/><path d="M133.11,54.23a.89.89,0,0,0,1-.8.88.88,0,0,0-1-.78.9.9,0,0,0-1,.78A.91.91,0,0,0,133.11,54.23Z"/><path d="M136.89,54a.6.6,0,0,0,.66-.54.69.69,0,0,0-1.34,0C136.21,53.74,136.5,54,136.89,54Z"/><path d="M140.64,53.72a.33.33,0,0,0,.36-.29c0-.17-.15-.29-.36-.29a.31.31,0,0,0-.34.29A.32.32,0,0,0,140.64,53.72Z"/><path d="M144.41,53.45s0,0,0,0,0,0,0,0,0,0,0,0S144.39,53.45,144.41,53.45Z"/><path d="M42.69,56.73c.16,0,.3-.1.3-.23a.27.27,0,0,0-.3-.24.24.24,0,1,0,0,.47Z"/><path d="M46.47,57a.55.55,0,0,0,.59-.47.61.61,0,0,0-1.2,0A.55.55,0,0,0,46.47,57Z"/><path d="M50.22,57.22a.75.75,0,1,0-.9-.72A.82.82,0,0,0,50.22,57.22Z"/><path d="M54,57.47a1.11,1.11,0,0,0,1.19-1,1.21,1.21,0,1,0-1.19,1Z"/><path d="M57.75,57.67A1.33,1.33,0,0,0,59.2,56.5a1.47,1.47,0,0,0-2.88,0A1.34,1.34,0,0,0,57.75,57.67Z"/><path d="M61.52,57.84a1.54,1.54,0,0,0,1.67-1.34,1.7,1.7,0,1,0-1.67,1.34Z"/><path d="M65.29,58a1.55,1.55,0,1,0,0-3,1.55,1.55,0,1,0,0,3Z"/><path d="M69.06,58.13a1.68,1.68,0,1,0-2-1.63A1.85,1.85,0,0,0,69.06,58.13Z"/><path d="M72.82,58.27a1.81,1.81,0,1,0-2.18-1.77A2,2,0,0,0,72.82,58.27Z"/><path d="M76.6,58.34a1.9,1.9,0,1,0,0-3.72,1.9,1.9,0,1,0,0,3.72Z"/><path d="M80.36,58.43A2,2,0,1,0,78,56.5,2.18,2.18,0,0,0,80.36,58.43Z"/><path d="M84.14,58.46a2,2,0,1,0-2.43-2A2.23,2.23,0,0,0,84.14,58.46Z"/><path d="M87.9,58.5a2,2,0,1,0-2.46-2A2.28,2.28,0,0,0,87.9,58.5Z"/><path d="M91.66,58.52a2.07,2.07,0,1,0-2.47-2A2.29,2.29,0,0,0,91.66,58.52Z"/><path d="M95.43,58.5a2.05,2.05,0,1,0-2.47-2A2.28,2.28,0,0,0,95.43,58.5Z"/><path d="M99.2,58.47a2,2,0,1,0,0-4,2,2,0,1,0,0,4Z"/><path d="M103,58.45a2.22,2.22,0,0,0,2.41-2,2.45,2.45,0,1,0-2.41,2Z"/><path d="M106.73,58.38a1.93,1.93,0,1,0-2.32-1.88A2.15,2.15,0,0,0,106.73,58.38Z"/><path d="M110.51,58.32a2.06,2.06,0,0,0,2.23-1.82,2.28,2.28,0,0,0-4.47,0A2.07,2.07,0,0,0,110.51,58.32Z"/><path d="M114.28,58.22a1.76,1.76,0,1,0-2.12-1.72A2,2,0,0,0,114.28,58.22Z"/><path d="M118,58.07a1.61,1.61,0,1,0,0-3.15,1.61,1.61,0,1,0,0,3.15Z"/><path d="M121.81,57.93A1.46,1.46,0,1,0,120,56.5,1.62,1.62,0,0,0,121.81,57.93Z"/><path d="M125.57,57.74A1.28,1.28,0,1,0,124,56.5,1.42,1.42,0,0,0,125.57,57.74Z"/><path d="M129.34,57.56A1.09,1.09,0,1,0,128,56.5,1.21,1.21,0,0,0,129.34,57.56Z"/><path d="M133.11,57.32a.85.85,0,1,0-1-.82A1,1,0,0,0,133.11,57.32Z"/><path d="M136.89,57.1a.69.69,0,0,0,.75-.6.71.71,0,0,0-.75-.63.73.73,0,0,0-.79.63C136.1,56.83,136.46,57.1,136.89,57.1Z"/><path d="M140.64,56.84c.25,0,.44-.15.44-.34a.45.45,0,0,0-.88,0C140.2,56.69,140.39,56.84,140.64,56.84Z"/><path d="M144.41,56.56c.05,0,.11,0,.11-.06s-.06-.08-.11-.08a.07.07,0,0,0-.08.08S144.37,56.56,144.41,56.56Z"/><path d="M42.69,59.81a.31.31,0,0,0,.33-.26.32.32,0,0,0-.33-.28.31.31,0,0,0-.32.28A.3.3,0,0,0,42.69,59.81Z"/><path d="M46.47,60.08a.6.6,0,0,0,.64-.53.59.59,0,0,0-.64-.52.58.58,0,0,0-.65.52A.59.59,0,0,0,46.47,60.08Z"/><path d="M50.22,60.32a.79.79,0,1,0-1-.77A.87.87,0,0,0,50.22,60.32Z"/><path d="M54,60.56a1,1,0,1,0-1.23-1A1.13,1.13,0,0,0,54,60.56Z"/><path d="M57.75,60.77a1.24,1.24,0,1,0,0-2.43,1.24,1.24,0,1,0,0,2.43Z"/><path d="M61.52,61a1.42,1.42,0,1,0-1.7-1.4A1.58,1.58,0,0,0,61.52,61Z"/><path d="M65.29,61.1a1.58,1.58,0,1,0-1.9-1.55A1.76,1.76,0,0,0,65.29,61.1Z"/><path d="M69.06,61.23A1.72,1.72,0,1,0,67,59.55,1.92,1.92,0,0,0,69.06,61.23Z"/><path d="M72.82,61.36a1.85,1.85,0,1,0-2.22-1.81A2.05,2.05,0,0,0,72.82,61.36Z"/><path d="M76.6,61.43a1.93,1.93,0,1,0-2.34-1.88A2.14,2.14,0,0,0,76.6,61.43Z"/><path d="M80.36,61.5a2,2,0,1,0-2.4-2A2.22,2.22,0,0,0,80.36,61.5Z"/><path d="M84.14,61.56a2,2,0,1,0-2.47-2A2.27,2.27,0,0,0,84.14,61.56Z"/><path d="M87.9,61.59a2.08,2.08,0,1,0-2.51-2A2.31,2.31,0,0,0,87.9,61.59Z"/><path d="M91.66,61.6a2.1,2.1,0,1,0,0-4.11,2.1,2.1,0,1,0,0,4.11Z"/><path d="M95.43,61.59a2.09,2.09,0,1,0-2.52-2A2.32,2.32,0,0,0,95.43,61.59Z"/><path d="M99.2,61.57a2.06,2.06,0,1,0-2.48-2A2.3,2.3,0,0,0,99.2,61.57Z"/><path d="M103,61.51a2,2,0,1,0-2.42-2A2.24,2.24,0,0,0,103,61.51Z"/><path d="M106.73,61.47a2,2,0,1,0-2.37-1.92A2.19,2.19,0,0,0,106.73,61.47Z"/><path d="M110.51,61.4a1.89,1.89,0,1,0-2.28-1.85A2.09,2.09,0,0,0,110.51,61.4Z"/><path d="M114.28,61.3a1.79,1.79,0,1,0-2.16-1.75A2,2,0,0,0,114.28,61.3Z"/><path d="M118,61.18a1.66,1.66,0,1,0,0-3.25,1.66,1.66,0,1,0,0,3.25Z"/><path d="M121.81,61A1.5,1.5,0,1,0,120,59.55,1.68,1.68,0,0,0,121.81,61Z"/><path d="M125.57,60.83a1.31,1.31,0,1,0,0-2.56,1.31,1.31,0,1,0,0,2.56Z"/><path d="M129.34,60.64A1.12,1.12,0,1,0,128,59.55,1.25,1.25,0,0,0,129.34,60.64Z"/><path d="M133.11,60.43a.91.91,0,1,0-1.1-.88A1,1,0,0,0,133.11,60.43Z"/><path d="M136.89,60.19a.71.71,0,0,0,.77-.64.69.69,0,0,0-.77-.64.73.73,0,0,0-.81.64A.74.74,0,0,0,136.89,60.19Z"/><path d="M140.64,59.93a.39.39,0,1,0,0-.76.39.39,0,1,0,0,.76Z"/><path d="M144.41,59.65c.08,0,.14,0,.14-.1s-.06-.11-.14-.11a.13.13,0,0,0-.14.11C144.27,59.62,144.34,59.65,144.41,59.65Z"/><path d="M42.69,62.9a.33.33,0,0,0,.35-.3.32.32,0,0,0-.35-.27.31.31,0,0,0-.34.27A.32.32,0,0,0,42.69,62.9Z"/><path d="M46.47,63.16a.56.56,0,1,0-.68-.56A.62.62,0,0,0,46.47,63.16Z"/><path d="M50.22,63.38a.8.8,0,1,0,0-1.56.8.8,0,1,0,0,1.56Z"/><path d="M54,63.62a1.15,1.15,0,0,0,1.26-1,1.28,1.28,0,0,0-2.51,0A1.14,1.14,0,0,0,54,63.62Z"/><path d="M57.75,63.83a1.25,1.25,0,1,0-1.5-1.23A1.39,1.39,0,0,0,57.75,63.83Z"/><path d="M61.52,64a1.44,1.44,0,1,0,0-2.82,1.44,1.44,0,1,0,0,2.82Z"/><path d="M65.29,64.16a1.59,1.59,0,1,0-1.92-1.56A1.77,1.77,0,0,0,65.29,64.16Z"/><path d="M69.06,64.32a1.75,1.75,0,1,0,0-3.42,1.74,1.74,0,1,0,0,3.42Z"/><path d="M72.82,64.43A1.86,1.86,0,1,0,70.6,62.6,2.07,2.07,0,0,0,72.82,64.43Z"/><path d="M76.6,64.51a1.94,1.94,0,1,0-2.34-1.91A2.15,2.15,0,0,0,76.6,64.51Z"/><path d="M80.36,64.57a2,2,0,1,0-2.42-2A2.23,2.23,0,0,0,80.36,64.57Z"/><path d="M84.14,64.62a2.06,2.06,0,1,0-2.49-2A2.28,2.28,0,0,0,84.14,64.62Z"/><path d="M87.9,64.66a2.1,2.1,0,1,0-2.53-2.06A2.32,2.32,0,0,0,87.9,64.66Z"/><path d="M91.66,64.69a2.13,2.13,0,1,0-2.55-2.09A2.36,2.36,0,0,0,91.66,64.69Z"/><path d="M95.43,64.66a2.1,2.1,0,1,0-2.54-2.06A2.33,2.33,0,0,0,95.43,64.66Z"/><path d="M99.2,64.64a2.08,2.08,0,1,0-2.51-2A2.3,2.3,0,0,0,99.2,64.64Z"/><path d="M103,64.61a2,2,0,1,0-2.44-2A2.28,2.28,0,0,0,103,64.61Z"/><path d="M106.73,64.54a2,2,0,1,0-2.38-1.94A2.19,2.19,0,0,0,106.73,64.54Z"/><path d="M110.51,64.47a1.91,1.91,0,1,0-2.31-1.87A2.11,2.11,0,0,0,110.51,64.47Z"/><path d="M114.28,64.37a1.81,1.81,0,1,0-2.18-1.77A2,2,0,0,0,114.28,64.37Z"/><path d="M118,64.25a1.68,1.68,0,1,0-2-1.65A1.86,1.86,0,0,0,118,64.25Z"/><path d="M121.81,64.09A1.52,1.52,0,1,0,120,62.6,1.68,1.68,0,0,0,121.81,64.09Z"/><path d="M125.57,63.93a1.34,1.34,0,1,0,0-2.63,1.47,1.47,0,0,0-1.6,1.3A1.48,1.48,0,0,0,125.57,63.93Z"/><path d="M129.34,63.73A1.14,1.14,0,1,0,128,62.6,1.27,1.27,0,0,0,129.34,63.73Z"/><path d="M133.11,63.5a1,1,0,0,0,1.11-.9,1,1,0,0,0-1.11-.9,1,1,0,0,0-1.12.9A1,1,0,0,0,133.11,63.5Z"/><path d="M136.89,63.26a.74.74,0,0,0,.8-.66.73.73,0,0,0-.8-.64.67.67,0,1,0,0,1.3Z"/><path d="M140.64,63c.28,0,.5-.16.5-.39a.51.51,0,0,0-1,0A.45.45,0,0,0,140.64,63Z"/><path d="M144.41,62.72a.13.13,0,0,0,.14-.12c0-.07-.05-.11-.14-.11s-.15,0-.15.11S144.34,62.72,144.41,62.72Z"/><path d="M42.69,65.94c.19,0,.35-.1.35-.26a.32.32,0,0,0-.35-.29.31.31,0,0,0-.34.29C42.35,65.84,42.5,65.94,42.69,65.94Z"/><path d="M46.47,66.2a.59.59,0,0,0,.64-.52.61.61,0,0,0-.64-.56.6.6,0,0,0-.65.56A.58.58,0,0,0,46.47,66.2Z"/><path d="M50.22,66.44a.79.79,0,1,0,0-1.55.79.79,0,1,0,0,1.55Z"/><path d="M54,66.68a1,1,0,1,0-1.24-1A1.15,1.15,0,0,0,54,66.68Z"/><path d="M57.75,66.87a1.23,1.23,0,1,0-1.48-1.19A1.36,1.36,0,0,0,57.75,66.87Z"/><path d="M61.52,67.06a1.43,1.43,0,1,0-1.72-1.38A1.59,1.59,0,0,0,61.52,67.06Z"/><path d="M65.29,67.23a1.59,1.59,0,1,0-1.92-1.55A1.77,1.77,0,0,0,65.29,67.23Z"/><path d="M69.06,67.38A1.74,1.74,0,1,0,67,65.68,1.92,1.92,0,0,0,69.06,67.38Z"/><path d="M72.82,67.47a1.84,1.84,0,1,0-2.22-1.79A2.05,2.05,0,0,0,72.82,67.47Z"/><path d="M76.6,67.58a1.95,1.95,0,1,0-2.34-1.9A2.15,2.15,0,0,0,76.6,67.58Z"/><path d="M80.36,67.63A2,2,0,1,0,78,65.68,2.22,2.22,0,0,0,80.36,67.63Z"/><path d="M84.14,67.68a2.06,2.06,0,1,0-2.48-2A2.28,2.28,0,0,0,84.14,67.68Z"/><path d="M87.9,67.71a2.09,2.09,0,1,0-2.52-2A2.32,2.32,0,0,0,87.9,67.71Z"/><path d="M91.66,67.73a2.11,2.11,0,1,0-2.53-2A2.35,2.35,0,0,0,91.66,67.73Z"/><path d="M95.43,67.73a2.11,2.11,0,1,0-2.54-2A2.34,2.34,0,0,0,95.43,67.73Z"/><path d="M99.2,67.68a2.06,2.06,0,1,0-2.51-2A2.3,2.3,0,0,0,99.2,67.68Z"/><path d="M103,67.65a2,2,0,1,0,0-4,2,2,0,1,0,0,4Z"/><path d="M106.73,67.6a2,2,0,1,0-2.37-1.92A2.2,2.2,0,0,0,106.73,67.6Z"/><path d="M110.51,67.52a1.9,1.9,0,1,0-2.3-1.84A2.11,2.11,0,0,0,110.51,67.52Z"/><path d="M114.28,67.42a2,2,0,0,0,2.15-1.74,2.2,2.2,0,1,0-2.15,1.74Z"/><path d="M118,67.29A1.66,1.66,0,1,0,118,64a1.66,1.66,0,1,0,0,3.25Z"/><path d="M121.81,67.13A1.51,1.51,0,1,0,120,65.68,1.68,1.68,0,0,0,121.81,67.13Z"/><path d="M125.57,67a1.32,1.32,0,1,0-1.6-1.28A1.47,1.47,0,0,0,125.57,67Z"/><path d="M129.34,66.77A1.13,1.13,0,1,0,128,65.68,1.26,1.26,0,0,0,129.34,66.77Z"/><path d="M133.11,66.56a1,1,0,0,0,1.11-.88,1,1,0,0,0-1.11-.92,1,1,0,0,0-1.12.92A1,1,0,0,0,133.11,66.56Z"/><path d="M136.89,66.33a.67.67,0,1,0,0-1.32.77.77,0,0,0-.83.67A.78.78,0,0,0,136.89,66.33Z"/><path d="M140.64,66.07a.46.46,0,0,0,.5-.39.5.5,0,0,0-1,0A.46.46,0,0,0,140.64,66.07Z"/><path d="M144.41,65.78a.13.13,0,0,0,.14-.1.13.13,0,0,0-.14-.14.15.15,0,0,0-.15.14S144.34,65.78,144.41,65.78Z"/><path d="M42.69,69a.29.29,0,0,0,.31-.26.3.3,0,0,0-.31-.27.31.31,0,0,0-.31.27A.3.3,0,0,0,42.69,69Z"/><path d="M46.47,69.23a.59.59,0,0,0,.63-.51.58.58,0,0,0-.63-.52.57.57,0,0,0-.64.52A.58.58,0,0,0,46.47,69.23Z"/><path d="M50.22,69.47a.77.77,0,1,0,0-1.5.77.77,0,1,0,0,1.5Z"/><path d="M54,69.71a1,1,0,1,0,0-2,1,1,0,1,0,0,2Z"/><path d="M57.75,69.92a1.21,1.21,0,1,0-1.46-1.2A1.35,1.35,0,0,0,57.75,69.92Z"/><path d="M61.52,70.1a1.41,1.41,0,1,0-1.68-1.38A1.57,1.57,0,0,0,61.52,70.1Z"/><path d="M65.29,70.26a1.57,1.57,0,1,0,0-3.07,1.57,1.57,0,1,0,0,3.07Z"/><path d="M69.06,70.37a1.69,1.69,0,1,0-2-1.65A1.89,1.89,0,0,0,69.06,70.37Z"/><path d="M72.82,70.52a1.83,1.83,0,1,0,0-3.58,1.83,1.83,0,1,0,0,3.58Z"/><path d="M76.6,70.59a1.91,1.91,0,1,0-2.31-1.87A2.12,2.12,0,0,0,76.6,70.59Z"/><path d="M80.36,70.67a2,2,0,1,0,0-3.89,2,2,0,1,0,0,3.89Z"/><path d="M84.14,70.71a2,2,0,1,0-2.46-2A2.27,2.27,0,0,0,84.14,70.71Z"/><path d="M87.9,70.75a2.06,2.06,0,1,0-2.49-2A2.29,2.29,0,0,0,87.9,70.75Z"/><path d="M91.66,70.75a2.08,2.08,0,1,0-2.5-2A2.32,2.32,0,0,0,91.66,70.75Z"/><path d="M95.43,70.75a2.08,2.08,0,1,0-2.5-2A2.3,2.3,0,0,0,95.43,70.75Z"/><path d="M99.2,70.72a2,2,0,1,0-2.46-2A2.28,2.28,0,0,0,99.2,70.72Z"/><path d="M103,70.7a2,2,0,1,0-2.42-2A2.25,2.25,0,0,0,103,70.7Z"/><path d="M106.73,70.63a1.94,1.94,0,1,0-2.34-1.91A2.17,2.17,0,0,0,106.73,70.63Z"/><path d="M110.51,70.56a1.87,1.87,0,1,0-2.27-1.84A2.09,2.09,0,0,0,110.51,70.56Z"/><path d="M114.28,70.46a1.76,1.76,0,1,0,0-3.45,1.76,1.76,0,1,0,0,3.45Z"/><path d="M118,70.33a1.64,1.64,0,1,0-2-1.61A1.83,1.83,0,0,0,118,70.33Z"/><path d="M121.81,70.17A1.49,1.49,0,1,0,120,68.72,1.65,1.65,0,0,0,121.81,70.17Z"/><path d="M125.57,70a1.31,1.31,0,1,0-1.58-1.3A1.47,1.47,0,0,0,125.57,70Z"/><path d="M129.34,69.79a1.1,1.1,0,1,0,0-2.14,1.1,1.1,0,1,0,0,2.14Z"/><path d="M133.11,69.59a.89.89,0,1,0-1.07-.87A1,1,0,0,0,133.11,69.59Z"/><path d="M136.89,69.35a.71.71,0,0,0,.75-.63.69.69,0,0,0-.75-.62.72.72,0,0,0-.8.62A.74.74,0,0,0,136.89,69.35Z"/><path d="M140.64,69.09a.41.41,0,0,0,.46-.37.42.42,0,0,0-.46-.38.44.44,0,0,0-.47.38A.43.43,0,0,0,140.64,69.09Z"/><path d="M144.41,68.81c.07,0,.12,0,.12-.09s-.05-.1-.12-.1a.1.1,0,1,0,0,.19Z"/><path d="M42.69,72c.14,0,.24-.08.24-.18a.22.22,0,0,0-.24-.21.23.23,0,0,0-.24.21C42.45,71.89,42.56,72,42.69,72Z"/><path d="M46.47,72.24a.51.51,0,0,0,.55-.45.52.52,0,0,0-.55-.47.53.53,0,0,0-.58.47A.53.53,0,0,0,46.47,72.24Z"/><path d="M50.22,72.5a.74.74,0,1,0,0-1.44.73.73,0,1,0,0,1.44Z"/><path d="M54,72.73a1,1,0,1,0-1.16-.94A1.05,1.05,0,0,0,54,72.73Z"/><path d="M57.75,72.92a1.16,1.16,0,1,0-1.39-1.13A1.28,1.28,0,0,0,57.75,72.92Z"/><path d="M61.52,73.11a1.35,1.35,0,1,0-1.62-1.32A1.5,1.5,0,0,0,61.52,73.11Z"/><path d="M65.29,73.28a1.53,1.53,0,1,0,0-3,1.53,1.53,0,1,0,0,3Z"/><path d="M69.06,73.42a1.86,1.86,0,0,0,2-1.63,2.05,2.05,0,0,0-4,0A1.86,1.86,0,0,0,69.06,73.42Z"/><path d="M72.82,73.53a1.79,1.79,0,1,0-2.15-1.74A2,2,0,0,0,72.82,73.53Z"/><path d="M76.6,73.61a1.87,1.87,0,1,0,0-3.67,1.87,1.87,0,1,0,0,3.67Z"/><path d="M80.36,73.69a1.94,1.94,0,1,0,0-3.8,1.94,1.94,0,1,0,0,3.8Z"/><path d="M84.14,73.74a2,2,0,1,0-2.42-1.95A2.23,2.23,0,0,0,84.14,73.74Z"/><path d="M87.9,73.77a2,2,0,1,0-2.44-2A2.25,2.25,0,0,0,87.9,73.77Z"/><path d="M91.66,73.78a2,2,0,1,0-2.45-2A2.27,2.27,0,0,0,91.66,73.78Z"/><path d="M95.43,73.77a2,2,0,1,0-2.44-2A2.26,2.26,0,0,0,95.43,73.77Z"/><path d="M99.2,73.74a2,2,0,1,0-2.42-1.95A2.23,2.23,0,0,0,99.2,73.74Z"/><path d="M103,73.7a2,2,0,1,0-2.36-1.91A2.18,2.18,0,0,0,103,73.7Z"/><path d="M106.73,73.65a1.91,1.91,0,1,0-2.3-1.86A2.12,2.12,0,0,0,106.73,73.65Z"/><path d="M110.51,73.57a1.83,1.83,0,1,0-2.21-1.78A2,2,0,0,0,110.51,73.57Z"/><path d="M114.28,73.48a1.73,1.73,0,1,0-2.08-1.69A1.91,1.91,0,0,0,114.28,73.48Z"/><path d="M118,73.32a1.58,1.58,0,1,0-1.91-1.53A1.75,1.75,0,0,0,118,73.32Z"/><path d="M121.81,73.16a1.43,1.43,0,1,0-1.72-1.37A1.58,1.58,0,0,0,121.81,73.16Z"/><path d="M125.57,73a1.25,1.25,0,1,0-1.49-1.23A1.39,1.39,0,0,0,125.57,73Z"/><path d="M129.34,72.82a1.06,1.06,0,1,0-1.28-1A1.19,1.19,0,0,0,129.34,72.82Z"/><path d="M133.11,72.59a.91.91,0,0,0,1-.8.94.94,0,0,0-1-.84,1,1,0,0,0-1,.84A.92.92,0,0,0,133.11,72.59Z"/><path d="M136.89,72.37a.68.68,0,0,0,.73-.58.69.69,0,0,0-.73-.6.68.68,0,0,0-.74.6A.67.67,0,0,0,136.89,72.37Z"/><path d="M140.64,72.09a.36.36,0,0,0,.39-.3.35.35,0,0,0-.39-.32.34.34,0,0,0-.37.32A.34.34,0,0,0,140.64,72.09Z"/><path d="M144.41,71.85s.09,0,.09-.06a.08.08,0,0,0-.09-.08s-.07,0-.07.08A.08.08,0,0,0,144.41,71.85Z"/><path d="M42.69,75a.17.17,0,0,0,.18-.14c0-.08-.07-.14-.18-.14a.16.16,0,0,0-.18.14A.18.18,0,0,0,42.69,75Z"/><path d="M46.47,75.24a.43.43,0,0,0,.47-.4.43.43,0,0,0-.47-.39.47.47,0,0,0-.51.39A.46.46,0,0,0,46.47,75.24Z"/><path d="M50.22,75.49a.67.67,0,1,0-.79-.65A.74.74,0,0,0,50.22,75.49Z"/><path d="M54,75.72a1,1,0,0,0,1.07-.88A1,1,0,0,0,54,74a1,1,0,0,0-1.07.86A1,1,0,0,0,54,75.72Z"/><path d="M57.75,75.91a1.09,1.09,0,1,0-1.3-1.07A1.2,1.2,0,0,0,57.75,75.91Z"/><path d="M61.52,76.08a1.41,1.41,0,0,0,1.55-1.24,1.59,1.59,0,1,0-1.55,1.24Z"/><path d="M65.29,76.27a1.46,1.46,0,1,0-1.76-1.43A1.63,1.63,0,0,0,65.29,76.27Z"/><path d="M69.06,76.4a1.59,1.59,0,1,0-1.92-1.56A1.79,1.79,0,0,0,69.06,76.4Z"/><path d="M72.82,76.51a1.71,1.71,0,1,0-2-1.67A1.9,1.9,0,0,0,72.82,76.51Z"/><path d="M76.6,76.6a2,2,0,0,0,2.18-1.76,2.22,2.22,0,0,0-4.35,0A2,2,0,0,0,76.6,76.6Z"/><path d="M80.36,76.68a1.89,1.89,0,1,0-2.26-1.84A2.09,2.09,0,0,0,80.36,76.68Z"/><path d="M84.14,76.74a1.93,1.93,0,1,0-2.34-1.9A2.14,2.14,0,0,0,84.14,76.74Z"/><path d="M87.9,76.76a2,2,0,1,0-2.37-1.92A2.19,2.19,0,0,0,87.9,76.76Z"/><path d="M91.66,76.78a2,2,0,1,0-2.38-1.94A2.2,2.2,0,0,0,91.66,76.78Z"/><path d="M95.43,76.76a2,2,0,1,0-2.36-1.92A2.19,2.19,0,0,0,95.43,76.76Z"/><path d="M99.2,76.75a2,2,0,1,0-2.35-1.91A2.17,2.17,0,0,0,99.2,76.75Z"/><path d="M103,76.71a1.91,1.91,0,1,0-2.28-1.87A2.12,2.12,0,0,0,103,76.71Z"/><path d="M106.73,76.66a1.85,1.85,0,1,0-2.23-1.82A2.06,2.06,0,0,0,106.73,76.66Z"/><path d="M110.51,76.57a1.76,1.76,0,1,0-2.13-1.73A2,2,0,0,0,110.51,76.57Z"/><path d="M114.28,76.46a1.66,1.66,0,1,0-2-1.62A1.86,1.86,0,0,0,114.28,76.46Z"/><path d="M118,76.33a1.52,1.52,0,1,0-1.84-1.49A1.69,1.69,0,0,0,118,76.33Z"/><path d="M121.81,76.18a1.36,1.36,0,1,0-1.64-1.34A1.52,1.52,0,0,0,121.81,76.18Z"/><path d="M125.57,76a1.19,1.19,0,1,0,0-2.33,1.19,1.19,0,1,0,0,2.33Z"/><path d="M129.34,75.82a1.13,1.13,0,0,0,1.21-1,1.11,1.11,0,0,0-1.21-1,1.09,1.09,0,0,0-1.19,1A1.11,1.11,0,0,0,129.34,75.82Z"/><path d="M133.11,75.59a.77.77,0,1,0-.92-.75A.84.84,0,0,0,133.11,75.59Z"/><path d="M136.89,75.35a.58.58,0,0,0,.62-.51.58.58,0,0,0-.62-.52.59.59,0,0,0-.65.52A.59.59,0,0,0,136.89,75.35Z"/><path d="M140.64,75.09c.18,0,.33-.11.33-.25a.34.34,0,0,0-.66,0C140.31,75,140.46,75.09,140.64,75.09Z"/><path d="M42.69,78a.06.06,0,0,0,.06,0s0-.05-.06-.05-.06,0-.06.05A.06.06,0,0,0,42.69,78Z"/><path d="M46.47,78.19a.34.34,0,0,0,.37-.29.33.33,0,0,0-.37-.31c-.22,0-.39.12-.39.31S46.25,78.19,46.47,78.19Z"/><path d="M50.22,78.45a.62.62,0,0,0,.67-.55.68.68,0,0,0-1.33,0A.63.63,0,0,0,50.22,78.45Z"/><path d="M54,78.67a.9.9,0,0,0,1-.77.88.88,0,0,0-1-.77.87.87,0,0,0-1,.77A.88.88,0,0,0,54,78.67Z"/><path d="M57.75,78.87a1.1,1.1,0,0,0,1.22-1,1.24,1.24,0,0,0-2.43,0A1.11,1.11,0,0,0,57.75,78.87Z"/><path d="M61.52,79.06a1.19,1.19,0,1,0-1.44-1.16A1.33,1.33,0,0,0,61.52,79.06Z"/><path d="M65.29,79.23a1.36,1.36,0,1,0-1.64-1.33A1.52,1.52,0,0,0,65.29,79.23Z"/><path d="M69.06,79.36a1.5,1.5,0,1,0,0-2.94,1.5,1.5,0,1,0,0,2.94Z"/><path d="M72.82,79.49a1.62,1.62,0,1,0,0-3.17,1.62,1.62,0,1,0,0,3.17Z"/><path d="M76.6,79.58a1.72,1.72,0,1,0,0-3.37,1.72,1.72,0,1,0,0,3.37Z"/><path d="M80.36,79.65a1.8,1.8,0,1,0-2.17-1.75A2,2,0,0,0,80.36,79.65Z"/><path d="M84.14,79.72a2.07,2.07,0,0,0,2.22-1.82,2,2,0,0,0-2.22-1.82,2.07,2.07,0,0,0-2.25,1.82A2.09,2.09,0,0,0,84.14,79.72Z"/><path d="M87.9,79.75a1.89,1.89,0,1,0-2.29-1.85A2.1,2.1,0,0,0,87.9,79.75Z"/><path d="M91.66,79.75a1.9,1.9,0,1,0-2.29-1.85A2.12,2.12,0,0,0,91.66,79.75Z"/><path d="M95.43,79.75a1.9,1.9,0,1,0-2.28-1.85A2.1,2.1,0,0,0,95.43,79.75Z"/><path d="M99.2,79.72a2.06,2.06,0,0,0,2.26-1.82,2.3,2.3,0,0,0-4.51,0A2.05,2.05,0,0,0,99.2,79.72Z"/><path d="M103,79.7a1.83,1.83,0,1,0-2.2-1.8A2,2,0,0,0,103,79.7Z"/><path d="M106.73,79.62a1.76,1.76,0,1,0-2.12-1.72A2,2,0,0,0,106.73,79.62Z"/><path d="M110.51,79.52a1.66,1.66,0,1,0-2-1.62A1.85,1.85,0,0,0,110.51,79.52Z"/><path d="M114.28,79.43a1.57,1.57,0,1,0-1.9-1.53A1.73,1.73,0,0,0,114.28,79.43Z"/><path d="M118,79.31a1.44,1.44,0,1,0,0-2.81,1.44,1.44,0,1,0,0,2.81Z"/><path d="M121.81,79.15a1.41,1.41,0,0,0,1.52-1.25,1.56,1.56,0,0,0-3.06,0A1.43,1.43,0,0,0,121.81,79.15Z"/><path d="M125.57,79a1.24,1.24,0,0,0,1.33-1.07,1.21,1.21,0,0,0-1.33-1.06,1.2,1.2,0,0,0-1.31,1.06A1.23,1.23,0,0,0,125.57,79Z"/><path d="M129.34,78.77a1,1,0,0,0,1.07-.87,1.09,1.09,0,0,0-2.14,0A1,1,0,0,0,129.34,78.77Z"/><path d="M133.11,78.55a.67.67,0,1,0,0-1.3.66.66,0,1,0,0,1.3Z"/><path d="M136.89,78.32a.42.42,0,1,0,0-.83c-.3,0-.54.18-.54.41A.48.48,0,0,0,136.89,78.32Z"/><path d="M140.64,78.06c.13,0,.22-.07.22-.16a.2.2,0,0,0-.22-.19.21.21,0,0,0-.21.19C140.43,78,140.53,78.06,140.64,78.06Z"/><path d="M46.47,81.15a.22.22,0,0,0,.23-.21.21.21,0,0,0-.23-.18c-.15,0-.26.08-.26.18A.23.23,0,0,0,46.47,81.15Z"/><path d="M50.22,81.4a.51.51,0,0,0,.56-.46.53.53,0,0,0-.56-.44.51.51,0,0,0-.54.44A.49.49,0,0,0,50.22,81.4Z"/><path d="M54,81.62a.68.68,0,1,0,0-1.33.68.68,0,1,0,0,1.33Z"/><path d="M57.75,81.83a.89.89,0,1,0-1.07-.89A1,1,0,0,0,57.75,81.83Z"/><path d="M61.52,82a1.07,1.07,0,1,0-1.28-1.07A1.19,1.19,0,0,0,61.52,82Z"/><path d="M65.29,82.17a1.24,1.24,0,1,0-1.49-1.23A1.38,1.38,0,0,0,65.29,82.17Z"/><path d="M69.06,82.32a1.39,1.39,0,1,0-1.68-1.38A1.55,1.55,0,0,0,69.06,82.32Z"/><path d="M72.82,82.45a1.7,1.7,0,0,0,1.85-1.51,1.88,1.88,0,0,0-3.68,0A1.69,1.69,0,0,0,72.82,82.45Z"/><path d="M76.6,82.53a1.61,1.61,0,1,0-1.95-1.59A1.78,1.78,0,0,0,76.6,82.53Z"/><path d="M80.36,82.61a1.69,1.69,0,1,0-2-1.67A1.88,1.88,0,0,0,80.36,82.61Z"/><path d="M84.14,82.67A1.75,1.75,0,1,0,82,80.94,1.94,1.94,0,0,0,84.14,82.67Z"/><path d="M87.9,82.68a1.78,1.78,0,1,0-2.15-1.74A2,2,0,0,0,87.9,82.68Z"/><path d="M91.66,82.71a1.8,1.8,0,1,0-2.17-1.77A2,2,0,0,0,91.66,82.71Z"/><path d="M95.43,82.71a1.79,1.79,0,1,0-2.16-1.77A2,2,0,0,0,95.43,82.71Z"/><path d="M99.2,82.68a1.77,1.77,0,1,0-2.14-1.74A2,2,0,0,0,99.2,82.68Z"/><path d="M103,82.64a1.72,1.72,0,1,0-2.07-1.7A1.91,1.91,0,0,0,103,82.64Z"/><path d="M106.73,82.57a1.65,1.65,0,1,0-2-1.63A1.82,1.82,0,0,0,106.73,82.57Z"/><path d="M110.51,82.49a1.57,1.57,0,1,0,0-3.08,1.57,1.57,0,1,0,0,3.08Z"/><path d="M114.28,82.37a1.46,1.46,0,1,0-1.76-1.43A1.61,1.61,0,0,0,114.28,82.37Z"/><path d="M118,82.23a1.31,1.31,0,1,0-1.59-1.29A1.45,1.45,0,0,0,118,82.23Z"/><path d="M121.81,82.1a1.17,1.17,0,1,0-1.4-1.16A1.29,1.29,0,0,0,121.81,82.1Z"/><path d="M125.57,81.91a1.08,1.08,0,0,0,1.19-1,1.21,1.21,0,0,0-2.37,0A1.08,1.08,0,0,0,125.57,81.91Z"/><path d="M129.34,81.72a.78.78,0,1,0,0-1.53.78.78,0,1,0,0,1.53Z"/><path d="M133.11,81.5a.56.56,0,1,0,0-1.09.56.56,0,1,0,0,1.09Z"/><path d="M136.89,81.25a.34.34,0,0,0,.37-.31c0-.15-.18-.29-.37-.29s-.4.14-.4.29S136.65,81.25,136.89,81.25Z"/><path d="M140.64,81c.06,0,.08,0,.08-.08s0,0-.08,0a.1.1,0,0,0-.08,0A.08.08,0,0,0,140.64,81Z"/><path d="M46.47,84.1a.1.1,0,0,0,.08-.08.08.08,0,0,0-.08-.09c-.06,0-.1,0-.1.09A.1.1,0,0,0,46.47,84.1Z"/><path d="M50.22,84.32a.31.31,0,1,0,0-.61.31.31,0,1,0,0,.61Z"/><path d="M54,84.53a.59.59,0,0,0,.65-.51.59.59,0,0,0-.65-.53.6.6,0,0,0-.65.53A.59.59,0,0,0,54,84.53Z"/><path d="M57.75,84.75a.75.75,0,1,0-.9-.73A.83.83,0,0,0,57.75,84.75Z"/><path d="M61.52,85A1.07,1.07,0,0,0,62.67,84a1.16,1.16,0,1,0-1.15.93Z"/><path d="M65.29,85.1a1.11,1.11,0,1,0,0-2.17,1.11,1.11,0,1,0,0,2.17Z"/><path d="M69.06,85.24a1.25,1.25,0,1,0,0-2.45,1.25,1.25,0,1,0,0,2.45Z"/><path d="M72.82,85.37A1.38,1.38,0,1,0,71.17,84,1.53,1.53,0,0,0,72.82,85.37Z"/><path d="M76.6,85.47A1.49,1.49,0,1,0,74.81,84,1.64,1.64,0,0,0,76.6,85.47Z"/><path d="M80.36,85.55A1.75,1.75,0,0,0,82.25,84a1.93,1.93,0,0,0-3.78,0A1.75,1.75,0,0,0,80.36,85.55Z"/><path d="M84.14,85.6a1.62,1.62,0,1,0-2-1.58A1.79,1.79,0,0,0,84.14,85.6Z"/><path d="M87.9,85.63a1.65,1.65,0,1,0-2-1.61A1.85,1.85,0,0,0,87.9,85.63Z"/><path d="M91.66,85.65a1.68,1.68,0,1,0-2-1.63A1.86,1.86,0,0,0,91.66,85.65Z"/><path d="M95.43,85.63a1.67,1.67,0,1,0-2-1.61A1.85,1.85,0,0,0,95.43,85.63Z"/><path d="M99.2,85.62a1.64,1.64,0,1,0-2-1.6A1.82,1.82,0,0,0,99.2,85.62Z"/><path d="M103,85.56A1.58,1.58,0,1,0,101.05,84,1.76,1.76,0,0,0,103,85.56Z"/><path d="M106.73,85.49A1.52,1.52,0,1,0,104.9,84,1.69,1.69,0,0,0,106.73,85.49Z"/><path d="M110.51,85.41A1.43,1.43,0,1,0,108.78,84,1.59,1.59,0,0,0,110.51,85.41Z"/><path d="M114.28,85.29A1.44,1.44,0,0,0,115.86,84a1.46,1.46,0,0,0-1.58-1.31,1.32,1.32,0,1,0,0,2.58Z"/><path d="M118,85.17A1.32,1.32,0,0,0,119.47,84a1.47,1.47,0,0,0-2.87,0A1.33,1.33,0,0,0,118,85.17Z"/><path d="M121.81,85a1.12,1.12,0,0,0,1.24-1,1.28,1.28,0,1,0-1.24,1Z"/><path d="M125.57,84.85a.94.94,0,0,0,1-.83.92.92,0,0,0-1-.84.94.94,0,0,0-1,.84A1,1,0,0,0,125.57,84.85Z"/><path d="M129.34,84.63a.64.64,0,1,0,0-1.25.64.64,0,1,0,0,1.25Z"/><path d="M133.11,84.42a.42.42,0,1,0,0-.82.42.42,0,1,0,0,.82Z"/><path d="M136.89,84.2a.21.21,0,0,0,.22-.18.2.2,0,0,0-.22-.18c-.14,0-.24.07-.24.18S136.75,84.2,136.89,84.2Z"/><path d="M50.22,87.22c.11,0,.2-.06.2-.14a.2.2,0,0,0-.2-.19.2.2,0,0,0-.19.19C50,87.16,50.12,87.22,50.22,87.22Z"/><path d="M54,87.44a.38.38,0,1,0,0-.75.44.44,0,0,0-.47.39C53.52,87.27,53.74,87.44,54,87.44Z"/><path d="M57.75,87.65c.42,0,.75-.25.75-.57a.68.68,0,0,0-.75-.59.66.66,0,0,0-.72.59A.65.65,0,0,0,57.75,87.65Z"/><path d="M61.52,87.83a.78.78,0,1,0,0-1.52.78.78,0,1,0,0,1.52Z"/><path d="M65.29,88a1,1,0,1,0-1.15-.93A1.07,1.07,0,0,0,65.29,88Z"/><path d="M69.06,88.16a1.11,1.11,0,1,0,0-2.17,1.11,1.11,0,1,0,0,2.17Z"/><path d="M72.82,88.26a1.21,1.21,0,1,0-1.46-1.18A1.36,1.36,0,0,0,72.82,88.26Z"/><path d="M76.6,88.37A1.33,1.33,0,1,0,75,87.08,1.47,1.47,0,0,0,76.6,88.37Z"/><path d="M80.36,88.43a1.39,1.39,0,1,0-1.69-1.35A1.54,1.54,0,0,0,80.36,88.43Z"/><path d="M84.14,88.49a1.46,1.46,0,1,0,0-2.86,1.46,1.46,0,1,0,0,2.86Z"/><path d="M87.9,88.53a1.5,1.5,0,1,0-1.8-1.45A1.66,1.66,0,0,0,87.9,88.53Z"/><path d="M91.66,88.57a1.53,1.53,0,1,0,0-3,1.53,1.53,0,1,0,0,3Z"/><path d="M95.43,88.53a1.5,1.5,0,1,0-1.81-1.45A1.65,1.65,0,0,0,95.43,88.53Z"/><path d="M99.2,88.51a1.48,1.48,0,1,0-1.78-1.43A1.65,1.65,0,0,0,99.2,88.51Z"/><path d="M103,88.46a1.42,1.42,0,1,0-1.71-1.38A1.58,1.58,0,0,0,103,88.46Z"/><path d="M106.73,88.39a1.51,1.51,0,0,0,1.65-1.31,1.68,1.68,0,0,0-3.29,0A1.51,1.51,0,0,0,106.73,88.39Z"/><path d="M110.51,88.31A1.41,1.41,0,0,0,112,87.08a1.57,1.57,0,1,0-1.53,1.23Z"/><path d="M114.28,88.2a1.29,1.29,0,0,0,1.4-1.12,1.44,1.44,0,1,0-1.4,1.12Z"/><path d="M118,88.07a1,1,0,1,0-1.25-1A1.14,1.14,0,0,0,118,88.07Z"/><path d="M121.81,87.92a1,1,0,0,0,1-.84.94.94,0,0,0-1-.85.93.93,0,0,0-1,.85A1,1,0,0,0,121.81,87.92Z"/><path d="M125.57,87.73a.76.76,0,0,0,.83-.65.84.84,0,0,0-1.65,0A.76.76,0,0,0,125.57,87.73Z"/><path d="M129.34,87.55a.53.53,0,0,0,.59-.47.54.54,0,0,0-.59-.5.53.53,0,0,0-.59.5C128.75,87.35,129,87.55,129.34,87.55Z"/><path d="M133.11,87.35a.28.28,0,1,0,0-.56.28.28,0,1,0,0,.56Z"/><path d="M136.89,87.11s.05,0,.05,0,0-.06-.05-.06-.08,0-.08.06S136.85,87.11,136.89,87.11Z"/><path d="M54,90.33a.24.24,0,0,0,.27-.21c0-.12-.12-.2-.27-.2s-.25.08-.25.2A.23.23,0,0,0,54,90.33Z"/><path d="M57.75,90.52a.46.46,0,0,0,.51-.4.47.47,0,0,0-.51-.41.46.46,0,0,0-.49.41A.45.45,0,0,0,57.75,90.52Z"/><path d="M61.52,90.72a.67.67,0,0,0,.75-.6c0-.34-.33-.59-.75-.59a.61.61,0,1,0,0,1.19Z"/><path d="M65.29,90.88a.77.77,0,1,0-.92-.76A.86.86,0,0,0,65.29,90.88Z"/><path d="M69.06,91a.92.92,0,1,0-1.11-.9A1,1,0,0,0,69.06,91Z"/><path d="M72.82,91.14a1,1,0,1,0-1.24-1A1.15,1.15,0,0,0,72.82,91.14Z"/><path d="M76.6,91.26a1.16,1.16,0,1,0-1.4-1.14A1.29,1.29,0,0,0,76.6,91.26Z"/><path d="M80.36,91.31a1.22,1.22,0,1,0-1.48-1.19A1.36,1.36,0,0,0,80.36,91.31Z"/><path d="M84.14,91.37a1.27,1.27,0,1,0,0-2.49,1.28,1.28,0,1,0,0,2.49Z"/><path d="M87.9,91.43a1.47,1.47,0,0,0,1.58-1.31,1.62,1.62,0,0,0-3.16,0A1.48,1.48,0,0,0,87.9,91.43Z"/><path d="M91.66,91.43a1.33,1.33,0,1,0,0-2.6,1.33,1.33,0,1,0,0,2.6Z"/><path d="M95.43,91.43a1.33,1.33,0,1,0-1.6-1.31A1.47,1.47,0,0,0,95.43,91.43Z"/><path d="M99.2,91.41a1.31,1.31,0,1,0,0-2.56,1.31,1.31,0,1,0,0,2.56Z"/><path d="M103,91.35a1.25,1.25,0,1,0-1.5-1.23A1.39,1.39,0,0,0,103,91.35Z"/><path d="M106.73,91.28a1.3,1.3,0,0,0,1.43-1.16,1.46,1.46,0,1,0-1.43,1.16Z"/><path d="M110.51,91.19a1.09,1.09,0,1,0-1.32-1.07A1.2,1.2,0,0,0,110.51,91.19Z"/><path d="M114.28,91.09a1.08,1.08,0,0,0,1.16-1,1.09,1.09,0,0,0-1.16-1,1.11,1.11,0,0,0-1.19,1A1.1,1.1,0,0,0,114.28,91.09Z"/><path d="M118,91a.85.85,0,1,0,0-1.67A.85.85,0,1,0,118,91Z"/><path d="M121.81,90.79a.69.69,0,1,0-.83-.67A.76.76,0,0,0,121.81,90.79Z"/><path d="M125.57,90.62a.51.51,0,1,0-.61-.5A.56.56,0,0,0,125.57,90.62Z"/><path d="M129.34,90.44a.35.35,0,0,0,.37-.32.34.34,0,0,0-.37-.31.35.35,0,0,0-.37.31A.36.36,0,0,0,129.34,90.44Z"/><path d="M133.11,90.23a.1.1,0,0,0,.11-.11.11.11,0,0,0-.22,0A.1.1,0,0,0,133.11,90.23Z"/><path d="M54,93.21h0s0,0,0,0h0S54,93.21,54,93.21Z"/><path d="M57.75,93.4a.25.25,0,0,0,.27-.22c0-.12-.12-.19-.27-.19s-.25.07-.25.19A.24.24,0,0,0,57.75,93.4Z"/><path d="M61.52,93.59a.46.46,0,0,0,.5-.41.46.46,0,0,0-.5-.39.45.45,0,0,0-.48.39A.46.46,0,0,0,61.52,93.59Z"/><path d="M65.29,93.75a.65.65,0,0,0,.71-.57.64.64,0,0,0-.71-.56.62.62,0,0,0-.69.56A.64.64,0,0,0,65.29,93.75Z"/><path d="M69.06,93.87a.79.79,0,0,0,.87-.69.89.89,0,0,0-1.74,0A.79.79,0,0,0,69.06,93.87Z"/><path d="M72.82,94a.85.85,0,1,0-1-.84A1,1,0,0,0,72.82,94Z"/><path d="M76.6,94.11a.95.95,0,1,0-1.14-.93A1,1,0,0,0,76.6,94.11Z"/><path d="M80.36,94.18a1,1,0,1,0,0-2,1,1,0,1,0,0,2Z"/><path d="M84.14,94.26a1.1,1.1,0,1,0-1.33-1.08A1.23,1.23,0,0,0,84.14,94.26Z"/><path d="M87.9,94.28a1.25,1.25,0,0,0,1.36-1.1,1.39,1.39,0,0,0-2.72,0A1.24,1.24,0,0,0,87.9,94.28Z"/><path d="M91.66,94.28A1.24,1.24,0,0,0,93,93.18a1.39,1.39,0,1,0-1.36,1.1Z"/><path d="M95.43,94.28a1.25,1.25,0,0,0,1.37-1.1,1.4,1.4,0,1,0-1.37,1.1Z"/><path d="M99.2,94.26a1.23,1.23,0,0,0,1.33-1.08,1.36,1.36,0,0,0-2.66,0A1.22,1.22,0,0,0,99.2,94.26Z"/><path d="M103,94.21a1.05,1.05,0,1,0,0-2.06,1.05,1.05,0,1,0,0,2.06Z"/><path d="M106.73,94.16a1.12,1.12,0,0,0,1.21-1,1.23,1.23,0,0,0-2.41,0A1.12,1.12,0,0,0,106.73,94.16Z"/><path d="M110.51,94.05a.89.89,0,1,0-1.09-.87A1,1,0,0,0,110.51,94.05Z"/><path d="M114.28,94a.87.87,0,0,0,.93-.78,1,1,0,0,0-1.88,0A.87.87,0,0,0,114.28,94Z"/><path d="M118,93.81a.71.71,0,0,0,.77-.63.78.78,0,0,0-1.54,0A.71.71,0,0,0,118,93.81Z"/><path d="M121.81,93.66a.49.49,0,1,0-.59-.48A.54.54,0,0,0,121.81,93.66Z"/><path d="M125.57,93.48c.21,0,.38-.12.38-.3a.34.34,0,0,0-.38-.3.34.34,0,0,0-.37.3A.33.33,0,0,0,125.57,93.48Z"/><path d="M129.34,93.3c.09,0,.14,0,.14-.12s0-.12-.14-.12a.12.12,0,1,0,0,.24Z"/><path d="M57.75,96.26a0,0,0,0,0,0,0h0Z"/><path d="M61.52,96.42c.14,0,.24-.08.24-.19s-.1-.18-.24-.18a.19.19,0,1,0,0,.37Z"/><path d="M65.29,96.6a.36.36,0,1,0,0-.71.36.36,0,1,0,0,.71Z"/><path d="M69.06,96.73a.56.56,0,0,0,.6-.5c0-.27-.27-.46-.6-.46s-.59.19-.59.46A.55.55,0,0,0,69.06,96.73Z"/><path d="M72.82,96.87a.72.72,0,0,0,.77-.64.71.71,0,0,0-.77-.62.7.7,0,0,0-.75.62A.71.71,0,0,0,72.82,96.87Z"/><path d="M76.6,97a.83.83,0,0,0,.89-.73.82.82,0,0,0-.89-.72.83.83,0,0,0-.9.72A.84.84,0,0,0,76.6,97Z"/><path d="M80.36,97a.8.8,0,1,0,0-1.56.8.8,0,1,0,0,1.56Z"/><path d="M84.14,97.07a.85.85,0,1,0,0-1.67.86.86,0,1,0,0,1.67Z"/><path d="M87.9,97.12a.91.91,0,1,0,0-1.77.91.91,0,1,0,0,1.77Z"/><path d="M91.66,97.14a.92.92,0,1,0,0-1.8.92.92,0,1,0,0,1.8Z"/><path d="M95.43,97.14a.92.92,0,1,0-1.1-.91A1,1,0,0,0,95.43,97.14Z"/><path d="M99.2,97.12a.89.89,0,1,0-1.08-.89A1,1,0,0,0,99.2,97.12Z"/><path d="M103,97.05a.83.83,0,1,0,0-1.62.83.83,0,1,0,0,1.62Z"/><path d="M106.73,97a.77.77,0,1,0,0-1.5.77.77,0,1,0,0,1.5Z"/><path d="M110.51,96.89a.66.66,0,1,0,0-1.3.67.67,0,1,0,0,1.3Z"/><path d="M114.28,96.78a.55.55,0,1,0,0-1.08.55.55,0,1,0,0,1.08Z"/><path d="M118,96.63c.28,0,.5-.15.5-.4a.46.46,0,0,0-.5-.4.48.48,0,0,0-.51.4C117.53,96.48,117.77,96.63,118,96.63Z"/><path d="M121.81,96.5a.3.3,0,0,0,.33-.27.34.34,0,0,0-.66,0A.3.3,0,0,0,121.81,96.5Z"/><path d="M125.57,96.34a.1.1,0,0,0,.11-.11s0-.08-.11-.08-.1,0-.1.08A.1.1,0,0,0,125.57,96.34Z"/><path d="M65.29,99.42c.08,0,.16-.06.16-.12s-.08-.12-.16-.12-.14,0-.14.12A.13.13,0,0,0,65.29,99.42Z"/><path d="M69.06,99.57a.31.31,0,0,0,.33-.27.3.3,0,0,0-.33-.27.3.3,0,0,0-.33.27A.32.32,0,0,0,69.06,99.57Z"/><path d="M72.82,99.67c.27,0,.46-.16.46-.37a.45.45,0,0,0-.9,0A.41.41,0,0,0,72.82,99.67Z"/><path d="M76.6,99.78a.54.54,0,0,0,.58-.48.55.55,0,0,0-.58-.49.54.54,0,0,0-.58.49A.53.53,0,0,0,76.6,99.78Z"/><path d="M80.36,99.83A.62.62,0,0,0,81,99.3a.69.69,0,0,0-1.35,0A.61.61,0,0,0,80.36,99.83Z"/><path d="M84.14,99.93a.7.7,0,0,0,.76-.63.78.78,0,1,0-.76.63Z"/><path d="M87.9,100a.74.74,0,0,0,.79-.66.81.81,0,0,0-1.58,0A.74.74,0,0,0,87.9,100Z"/><path d="M91.66,100a.76.76,0,0,0,.81-.66.75.75,0,0,0-.81-.65.73.73,0,0,0-.79.65A.74.74,0,0,0,91.66,100Z"/><path d="M95.43,100a.76.76,0,0,0,.81-.66.74.74,0,0,0-.81-.65.73.73,0,0,0-.8.65A.74.74,0,0,0,95.43,100Z"/><path d="M99.2,99.93a.71.71,0,0,0,.77-.63.7.7,0,0,0-.77-.61.64.64,0,1,0,0,1.24Z"/><path d="M103,99.89a.67.67,0,0,0,.74-.59.69.69,0,0,0-.74-.61.67.67,0,0,0-.71.61A.64.64,0,0,0,103,99.89Z"/><path d="M106.73,99.81a.59.59,0,0,0,.65-.51.59.59,0,0,0-.65-.51.58.58,0,0,0-.62.51A.57.57,0,0,0,106.73,99.81Z"/><path d="M110.51,99.73a.44.44,0,1,0,0-.86.44.44,0,1,0,0,.86Z"/><path d="M114.28,99.59a.3.3,0,1,0,0-.59c-.21,0-.39.12-.39.3S114.07,99.59,114.28,99.59Z"/><path d="M118,99.48a.2.2,0,0,0,.22-.18.2.2,0,0,0-.22-.18.21.21,0,0,0-.23.18A.22.22,0,0,0,118,99.48Z"/><path d="M121.81,99.35s.07,0,.07,0,0,0-.07,0a.05.05,0,1,0,0,.1Z"/><path d="M69.06,102.38l0,0h0S69.05,102.38,69.06,102.38Z"/><path d="M72.82,102.48c.09,0,.16,0,.16-.13s-.07-.11-.16-.11a.12.12,0,0,0-.13.11A.13.13,0,0,0,72.82,102.48Z"/><path d="M76.6,102.58a.26.26,0,0,0,.26-.23.27.27,0,0,0-.52,0A.26.26,0,0,0,76.6,102.58Z"/><path d="M80.36,102.64c.21,0,.36-.12.36-.29a.36.36,0,0,0-.71,0A.32.32,0,0,0,80.36,102.64Z"/><path d="M84.14,102.72a.42.42,0,0,0,.43-.37.41.41,0,0,0-.43-.35.39.39,0,0,0-.44.35A.4.4,0,0,0,84.14,102.72Z"/><path d="M87.9,102.74a.44.44,0,0,0,.48-.39c0-.2-.22-.36-.48-.36a.38.38,0,1,0,0,.75Z"/><path d="M91.66,102.74c.28,0,.5-.16.5-.39a.46.46,0,0,0-.5-.39.46.46,0,0,0-.48.39A.44.44,0,0,0,91.66,102.74Z"/><path d="M95.43,102.74a.44.44,0,0,0,.49-.39.5.5,0,0,0-1,0A.44.44,0,0,0,95.43,102.74Z"/><path d="M99.2,102.73a.41.41,0,0,0,.45-.38.4.4,0,0,0-.45-.36.43.43,0,0,0-.47.36A.43.43,0,0,0,99.2,102.73Z"/><path d="M103,102.67a.36.36,0,0,0,.4-.32c0-.16-.19-.31-.4-.31a.35.35,0,0,0-.37.31A.34.34,0,0,0,103,102.67Z"/><path d="M106.73,102.61c.19,0,.33-.11.33-.26a.33.33,0,0,0-.65,0A.29.29,0,0,0,106.73,102.61Z"/><path d="M110.51,102.54a.22.22,0,0,0,.21-.19c0-.08-.1-.16-.21-.16a.19.19,0,0,0-.21.16A.21.21,0,0,0,110.51,102.54Z"/><path d="M114.28,102.43s.06,0,.06-.08,0-.07-.06-.07a.1.1,0,0,0-.1.07C114.18,102.4,114.22,102.43,114.28,102.43Z"/><path d="M80.36,105.45s0,0,0,0,0,0,0,0,0,0,0,0S80.35,105.45,80.36,105.45Z"/><path d="M84.14,105.49a.09.09,0,0,0,.09-.07.08.08,0,0,0-.09-.09c-.06,0-.11,0-.11.09S84.08,105.49,84.14,105.49Z"/><path d="M87.9,105.52a.12.12,0,0,0,.13-.1c0-.09-.06-.12-.13-.12s-.13,0-.13.12A.12.12,0,0,0,87.9,105.52Z"/><path d="M91.66,105.52c.09,0,.15,0,.15-.1s-.06-.13-.15-.13a.14.14,0,0,0-.15.13S91.59,105.52,91.66,105.52Z"/><path d="M95.43,105.52c.08,0,.15,0,.15-.1s-.07-.13-.15-.13a.12.12,0,0,0-.14.13S95.35,105.52,95.43,105.52Z"/><path d="M99.2,105.49c.06,0,.11,0,.11-.07a.11.11,0,0,0-.22,0S99.14,105.49,99.2,105.49Z"/><path d="M103,105.49a.08.08,0,0,0,.09-.07.08.08,0,0,0-.09-.09.08.08,0,0,0-.07.09A.08.08,0,0,0,103,105.49Z"/><path class="cls-1" d="M50.29,43.35a12.9,12.9,0,0,0,4.64-7.26,15.24,15.24,0,0,0,.18-4.89A20.45,20.45,0,0,0,69.6,38.65c8.67.41,17.34-5,19.79-13.34.28,1.44,1.92,9,9.18,12.16,8.75,3.85,30.9-10.59,30.9-10.59s-3.08,7.3,0,11.77c4.31,6.26,17.82,9,31.38,3.52a30.19,30.19,0,0,0-5.22,5.21c-2.27,2.94-6.38,8.22-4.92,13.61s15.94,11,15.94,11-15.79.17-20.77,4.71a14.5,14.5,0,0,0-4.82,11.76,21.51,21.51,0,0,0-14.49-3.53c-7.7,1.07-14,6.79-15,14.12A16.28,16.28,0,0,0,99.05,87.66C90.47,86,77.32,99.81,77.32,99.81s.27-5.28-2-9.17a16.26,16.26,0,0,0-4.79-5.34c-5.62-3.36-20,1.27-33.79,12.55,5.6-8.95,9.92-18.92,4.82-23.92-6-5.92-23.65-5.49-23.65-5.49,1.2-.3,9.62-2.53,13-9.41,3.08-6.21-5.77-18.65-5.77-18.65S45.58,46.91,50.29,43.35Z"/><path d="M49.08,42.3A13.07,13.07,0,0,0,51.22,40a12.17,12.17,0,0,0,.86-1.3,10.54,10.54,0,0,0,1.17-2.78c.12-.49.22-1,.3-1.51a17.61,17.61,0,0,0,.16-3.07h0l-.8-4.62,3.4,3.87a20.8,20.8,0,0,0,7.92,5.52,17.75,17.75,0,0,0,9.94.76,19.84,19.84,0,0,0,8.73-4.35A18.71,18.71,0,0,0,86,29.06a20.48,20.48,0,0,0,2.06-4l2-5,.72,5.09h0a15.66,15.66,0,0,0,4.72,9.3,13.55,13.55,0,0,0,1.08.9c.38.29.8.52,1.2.79s.87.45,1.3.67l.63.23c.22.07.46.11.69.16a15.24,15.24,0,0,0,6-.4A55.37,55.37,0,0,0,118,32.22,114.52,114.52,0,0,0,128.6,26l3.5-2.32-1.32,3.57a19.86,19.86,0,0,0-.67,2.3,19.31,19.31,0,0,0-.38,2.36,10.85,10.85,0,0,0,.42,4.53,5.32,5.32,0,0,0,.21.5,2.75,2.75,0,0,0,.23.49l.28.46c.09.15.23.3.34.46A10,10,0,0,0,132.93,40a15.76,15.76,0,0,0,4.66,2.38,28.92,28.92,0,0,0,11.29,1.17,38.51,38.51,0,0,0,11.17-2.69l10.33-4.14-8.27,6.51a29.67,29.67,0,0,0-3.7,3.45c-.56.63-1,1.24-1.57,1.92s-1,1.34-1.48,2c-.93,1.35,1.68,1.58,1.12,3a10.51,10.51,0,0,0-.81,4.24c.05.35,0,.7.12,1l.11.51.76,1.53.52.55-.52-.55c.21.54,0,0,.52.55,1,1.12-1,3.28.51,4.22a52.38,52.38,0,0,0,4.73,2.63c1.64.81,3.36,1.59,5,2.27l6.84,2.74-7.63.16c-1.47,0-3,.12-4.53.24s-3,.3-4.52.51-3,.5-4.35.85a21.19,21.19,0,0,0-3.94,1.34,9.49,9.49,0,0,0-1.58.91,13.15,13.15,0,0,0-4.76,11l.24,3.58-3.42-2.29a20.39,20.39,0,0,0-8.07-3.13,16.87,16.87,0,0,0-8.58,1,16,16,0,0,0-3.67,2,14.87,14.87,0,0,0-4.92,6.09,14.92,14.92,0,0,0-1,3.61l-1.37,9-2.52-8.81a14.43,14.43,0,0,0-5.1-7.44,14.27,14.27,0,0,0-4.3-2.27,9.69,9.69,0,0,0-1.2-.34c-.19,0-.42-.11-.59-.13L98,89.13a8.24,8.24,0,0,0-2.22.19,13.8,13.8,0,0,0-2.37.75,21.54,21.54,0,0,0-2.33,1.11A39.09,39.09,0,0,0,86.68,94c-1.41,1-2.76,2.13-4.07,3.27S80,99.6,78.88,100.79l-3.7,3.82.17-4.87c0-.41,0-.91,0-1.37s-.06-.94-.11-1.41a19.73,19.73,0,0,0-.51-2.76,13.18,13.18,0,0,0-1-2.56,15.82,15.82,0,0,0-1.59-2.4,14.9,14.9,0,0,0-2-2.11c-.18-.15-.36-.28-.53-.4a4.4,4.4,0,0,0-.51-.29,4.89,4.89,0,0,0-1.19-.4,10.7,10.7,0,0,0-3-.18,22.12,22.12,0,0,0-3.26.48,39.41,39.41,0,0,0-6.44,2.11,60.2,60.2,0,0,0-6.09,3,78.72,78.72,0,0,0-11,7.52l-8.57,7,5.49-8.76a60.76,60.76,0,0,0,5.38-10.31,23.09,23.09,0,0,0,1.44-5.3,9.27,9.27,0,0,0-.54-5,5.77,5.77,0,0,0-1.47-1.93,10.52,10.52,0,0,0-2.34-1.53,26,26,0,0,0-6-2,56.24,56.24,0,0,0-6.68-1c-2.26-.19-4.6-.29-6.81-.27h0l-13.75.22L17.4,67a23.56,23.56,0,0,0,4.46-1.55,20.63,20.63,0,0,0,3.91-2.36,14.14,14.14,0,0,0,3-3.09,6.76,6.76,0,0,0,.56-.87,5.62,5.62,0,0,0,.94-2.68,12.48,12.48,0,0,0-.37-4,26.59,26.59,0,0,0-1.32-4,48.48,48.48,0,0,0-4.11-7.75h0l-1.06-1.57,2.11.58c2,.56,4.1,1.06,6.17,1.52s4.15.88,6.24,1.21a47.86,47.86,0,0,0,6.23.64A17.31,17.31,0,0,0,47.08,43,4.47,4.47,0,0,0,49.08,42.3Zm2.41,2.1a6.42,6.42,0,0,1-2,.91,7.36,7.36,0,0,1-1,.22c-.33.07-.64.08-1,.12a22.45,22.45,0,0,1-3.58,0c-1.15-.09-2.26-.24-3.36-.42s-2.19-.39-3.26-.63c-2.14-.46-4.24-1-6.31-1.59s-4.1-1.25-6.13-2l1.05-1h0a50.31,50.31,0,0,1,4.69,7.84,29.12,29.12,0,0,1,1.64,4.21,14.22,14.22,0,0,1,.66,4.52,7.64,7.64,0,0,1-.48,2.4,8.29,8.29,0,0,1-.53,1.12,9.11,9.11,0,0,1-.61,1A16.3,16.3,0,0,1,28,64.93a23,23,0,0,1-4.4,2.91,26.7,26.7,0,0,1-5.13,2L17.88,67h0c2.49,0,4.87.07,7.29.27a59.29,59.29,0,0,1,7.23,1,29.85,29.85,0,0,1,7,2.28,14.82,14.82,0,0,1,3.15,2,8.9,8.9,0,0,1,2.22,2.91,11.62,11.62,0,0,1,.79,6.35,25.65,25.65,0,0,1-1.56,5.9,63.62,63.62,0,0,1-5.57,10.82L35.4,96.75a82.44,82.44,0,0,1,11.51-7.92,51.41,51.41,0,0,1,13.72-5.57,25.38,25.38,0,0,1,4-.59A15.3,15.3,0,0,1,69,83a9.46,9.46,0,0,1,2.19.75,9.63,9.63,0,0,1,1,.57c.29.21.56.41.81.62a18.06,18.06,0,0,1,2.51,2.62,19,19,0,0,1,1.89,2.87,15.2,15.2,0,0,1,1.22,3.14,20.48,20.48,0,0,1,.58,3.15c.06.53.11,1.06.13,1.58s0,1,0,1.63l-3.53-1c1.29-1.32,2.59-2.53,4-3.74s2.8-2.36,4.32-3.47a42.79,42.79,0,0,1,4.85-3.11,27,27,0,0,1,2.76-1.31,19,19,0,0,1,3.12-1,12.93,12.93,0,0,1,3.62-.28l1,.13c.32.05.55.12.83.18a16.18,16.18,0,0,1,1.59.45,18.28,18.28,0,0,1,5.52,2.91,17.55,17.55,0,0,1,6.24,9.06l-3.89.18a18.13,18.13,0,0,1,1.2-4.33,18.73,18.73,0,0,1,2.42-4,19.79,19.79,0,0,1,8.19-5.94,21.83,21.83,0,0,1,5.38-1.31,21.56,21.56,0,0,1,5.62.12,23.81,23.81,0,0,1,5.24,1.42,23.34,23.34,0,0,1,4.62,2.42l-3.19,1.29a15.79,15.79,0,0,1,1.71-8.17,16,16,0,0,1,2.56-3.65,14.63,14.63,0,0,1,1.79-1.65,13.36,13.36,0,0,1,2.24-1.31,26.36,26.36,0,0,1,4.73-1.6c1.6-.4,3.2-.68,4.8-.92s3.21-.41,4.81-.54,3.19-.21,4.86-.24l-.79,2.9c-1.88-.76-3.61-1.56-5.36-2.43a55.74,55.74,0,0,1-5.07-2.84,23.78,23.78,0,0,1-4.59-3.64,8.37,8.37,0,0,1-1.7-2.55L149,61.5l-.06-.19,0-.17-.14-.68a12.47,12.47,0,0,1-.15-1.37,13.1,13.1,0,0,1,1-5.26,24.14,24.14,0,0,1,2.6-4.66c.5-.73,1-1.44,1.57-2.13s1.12-1.42,1.73-2.1a32.59,32.59,0,0,1,4.12-3.82l2.06,2.37a42.53,42.53,0,0,1-12.43,2.94,32.5,32.5,0,0,1-13-1.41,19,19,0,0,1-5.69-3,12.65,12.65,0,0,1-2.18-2.21,7.07,7.07,0,0,1-.44-.63l-.38-.68a3.76,3.76,0,0,1-.31-.68c-.09-.23-.19-.46-.26-.69a13,13,0,0,1-.27-5.45,19.43,19.43,0,0,1,.56-2.6,20.3,20.3,0,0,1,.88-2.55l2.19,1.24a119.35,119.35,0,0,1-11.16,6c-1.93.91-3.9,1.77-5.93,2.54a43.16,43.16,0,0,1-6.33,2,24.86,24.86,0,0,1-3.4.55,14.1,14.1,0,0,1-3.6-.15c-.3-.07-.61-.12-.9-.21l-.88-.31c-.51-.25-1-.49-1.51-.75s-.95-.56-1.38-.89a15.72,15.72,0,0,1-1.26-1L93.4,35c-.19-.18-.36-.37-.54-.55-.37-.37-.69-.77-1-1.16s-.59-.81-.89-1.21-.54-.83-.76-1.26a21.66,21.66,0,0,1-2.15-5.33h0l2.67.08a18.54,18.54,0,0,1-1.91,4.66,20,20,0,0,1-8.07,7.38,21.49,21.49,0,0,1-5.71,2,22.59,22.59,0,0,1-6.26.37,20,20,0,0,1-6-1.45,21.37,21.37,0,0,1-5-2.89,19.9,19.9,0,0,1-3.83-3.84l2.6-.74h0a14.49,14.49,0,0,1,.26,3.53,15.39,15.39,0,0,1-.18,1.77,12.89,12.89,0,0,1-.47,1.8,12.43,12.43,0,0,1-1.76,3.36A12.05,12.05,0,0,1,53.08,43,13.53,13.53,0,0,1,51.49,44.4Z"/><path class="cls-2" d="M72.49,28.45,66,14.19Z"/><path d="M72.49,28.45,64.32,14.69a1.35,1.35,0,0,1,.83-1.93,2,2,0,0,1,2.38.68,2.72,2.72,0,0,1,.11.25Z"/><path class="cls-2" d="M75.88,23.66,72.68,1.53Z"/><path d="M75.88,23.66l-5-22A1.51,1.51,0,0,1,72.35,0a1.78,1.78,0,0,1,2.06,1.16.63.63,0,0,1,0,.19Z"/><path class="cls-2" d="M109,27.15l8.21-13.66Z"/><path d="M109,27.15l6.62-14.29A1.91,1.91,0,0,1,117.9,12a1.38,1.38,0,0,1,1,1.86,1.2,1.2,0,0,1-.15.24Z"/><path class="cls-2" d="M20,54.48l-18-4.09Z"/><path d="M20,54.48,1.46,51.78A1.49,1.49,0,0,1,0,50.1a1.79,1.79,0,0,1,2.06-1.17l.33.08Z"/><path class="cls-2" d="M144.32,34.16l13.47-6.45Z"/><path d="M144.32,34.16l12.57-7.69a2.07,2.07,0,0,1,2.5.29,1.27,1.27,0,0,1-.36,2,1.35,1.35,0,0,1-.34.17Z"/><path class="cls-2" d="M60.86,96.06,54.31,110.3Z"/><path d="M60.86,96.06,56,110.81a1.86,1.86,0,0,1-2.18,1,1.43,1.43,0,0,1-1.25-1.77,2,2,0,0,1,.11-.26Z"/><path class="cls-2" d="M42.67,35.24,31.74,22.89Z"/><path d="M42.67,35.24,30.3,23.73a1.27,1.27,0,0,1,.17-2,2.08,2.08,0,0,1,2.51.14l.2.22Z"/><path class="cls-2" d="M156.42,82.15l18.47,6.57Z"/><path d="M156.42,82.15,175.6,87.4a1.4,1.4,0,0,1,1.12,1.83,1.89,1.89,0,0,1-2.25.9,1.42,1.42,0,0,1-.29-.1Z"/><path class="cls-2" d="M124.25,93.18l11.63,13.4Z"/><path d="M124.25,93.18l13.08,12.57a1.26,1.26,0,0,1-.21,2,2.06,2.06,0,0,1-2.5-.17,1.18,1.18,0,0,1-.18-.21Z"/><path class="cls-2" d="M97.36,97.85l.81,14.39Z"/><path d="M97.36,97.85l2.58,14.33a1.54,1.54,0,0,1-1.51,1.64,1.76,1.76,0,0,1-2-1.23.88.88,0,0,1,0-.28Z"/><path class="cls-2" d="M91.74,101.65l-4.25,18.09Z"/><path d="M91.74,101.65,89.23,120a1.72,1.72,0,0,1-2,1.27,1.55,1.55,0,0,1-1.57-1.59,1.74,1.74,0,0,1,0-.22Z"/><path class="cls-2" d="M134.42,95.7l17,13.43Z"/><path d="M134.42,95.7l18.19,12.4a1.26,1.26,0,0,1,.22,2,2.07,2.07,0,0,1-2.5.18l-.19-.15Z"/><path class="cls-2" d="M143.19,30.41l13.92-12.29Z"/><path d="M143.19,30.41l12.86-13.29a1.89,1.89,0,0,1,2.4-.37,1.41,1.41,0,0,1,0,2.15,1.31,1.31,0,0,1-.25.22Z"/><path class="cls-2" d="M31.39,85.83l-21,13.64Z"/><path d="M31.39,85.83,11.52,100.59A2.07,2.07,0,0,1,9,100.5a1.25,1.25,0,0,1,.12-2,1.13,1.13,0,0,1,.18-.12Z"/><path d="M20.67,55.5a41,41,0,0,1,11.14-2.8c4-.25,6.05,1,6.17,3.8q.39,8.4-13,18.25c-.42,3.65-.69,7-.79,10.13l-6.93,2.39c.05-.65.27-2.66.69-6l1.28-10.65Q20.92,55.93,20.67,55.5Zm6,6.75q-.24,1.26-.42,2.52L26,67.25c2.66-1.54,4.35-3.09,5.05-4.65a1.41,1.41,0,0,0,.14-.59c0-.5-.42-.73-1.16-.68A12.37,12.37,0,0,0,26.71,62.25Z"/><path d="M50.36,50.28q4.71-.3,7,4.82A16.49,16.49,0,0,1,58.75,61a27.39,27.39,0,0,1-.51,6.81,32,32,0,0,1-5,11.81q-4.53,6.7-10,7.05-4.75.31-7.08-4.81a16.07,16.07,0,0,1-1.34-5.71,27.25,27.25,0,0,1,.54-6.9,32.4,32.4,0,0,1,4.91-11.85Q44.82,50.63,50.36,50.28Zm-.9,11.11q-2.45.15-4.72,4.31a21.69,21.69,0,0,0-2.45,6.35A12.2,12.2,0,0,0,42.07,75a4.76,4.76,0,0,0,1.08,2.92A3.4,3.4,0,0,0,46.07,79a5.67,5.67,0,0,0,4.32-2.9,13.39,13.39,0,0,0,2-5.08,16.6,16.6,0,0,0-.06-6.59Q51.6,61.26,49.46,61.39Z"/><path d="M88.37,49.57a191.62,191.62,0,0,0-7,31.55l-9.83,2.32L72.19,67,69,82.39l-9.35,2.34A240.52,240.52,0,0,0,59.81,54l8.33-2.13-.5,19.55,4.41-21.94,4.49-.95L75.18,76.08l4.65-24.63Z"/><path d="M105.43,58.07l-3.3,1.5-3.24,1.5q-.14-2.09-1.29-2a4.58,4.58,0,0,0-3.17,2.07,3.46,3.46,0,0,0-.81,2.73c.13.55.71.8,1.74.73a12.18,12.18,0,0,0,2.21-.4,17.06,17.06,0,0,1,3.35-.62c2.48-.15,4,.61,4.51,2.3a7.56,7.56,0,0,1,.28,1.68A11.37,11.37,0,0,1,104,73.81a22.59,22.59,0,0,1-7.27,7.73,10.15,10.15,0,0,1-5,1.88,9.08,9.08,0,0,1-4.61-1c.63-1.83,1.65-4.52,3.06-8.09a5.29,5.29,0,0,0,3.08.79,5.19,5.19,0,0,0,1.45-.32,11.82,11.82,0,0,0,2.55-1.18c1.15-.73,1.7-1.43,1.65-2.11s-.67-1.08-1.89-1a18.57,18.57,0,0,0-3.58.74,18.63,18.63,0,0,1-3.59.74,4.37,4.37,0,0,1-2.57-.46A3.47,3.47,0,0,1,85.55,68q.27-5,5.63-11.81,5.47-7,9.73-7.61c2.74-.35,4.24,1.63,4.52,5.95A34.33,34.33,0,0,1,105.43,58.07Z"/><path d="M136.77,46.51a192.37,192.37,0,0,0-7,31.55L120,80.38l.62-16.4-3.17,15.35-9.36,2.33a236.76,236.76,0,0,0,.15-30.76l8.34-2.13L116,68.32l4.41-21.94,4.5-1L123.59,73l4.64-24.63Z"/><path d="M130.62,80.64a287.22,287.22,0,0,0,8.54-32.77l13.35-3.12a179,179,0,0,0-.07,32l-9.27,2.77.31-5.59-2.94.76-.68,4Zm13.2-12.76,1-16.89h-.05l-3.08,17.44Z"/><path d="M156.6,46.9a41,41,0,0,1,11.15-2.8c4-.25,6.05,1,6.16,3.8q.41,8.4-13,18.25c-.42,3.66-.68,7-.78,10.13l-6.94,2.4c.05-.66.28-2.66.69-6L155.15,62Q156.85,47.33,156.6,46.9Zm6.05,6.75c-.16.84-.3,1.69-.43,2.53l-.33,2.47c2.67-1.54,4.35-3.09,5.06-4.65a1.4,1.4,0,0,0,.14-.58c0-.51-.42-.73-1.16-.69A12.67,12.67,0,0,0,162.65,53.65Z"/><path class="cls-3" d="M15.69,84.15c.05-.69.29-2.78.69-6l1.29-10.64C19,55.71,19.19,53.07,19.15,52.6l-.26-.44.55-.21a41.2,41.2,0,0,1,11.29-2.83l1,0c4.57,0,5.63,2.34,5.71,4.3.27,5.72-4.12,12-13,18.55-.4,3.54-.66,6.86-.76,9.87v.34l-8,2.76ZM26.1,59.53c-.13.75-.25,1.49-.36,2.23l-.2,1.43a10.06,10.06,0,0,0,4-3.88A.77.77,0,0,0,29.6,59c0-.09,0-.22-.47-.22H29A11.64,11.64,0,0,0,26.1,59.53Z"/><path class="cls-4" d="M31.72,49.59c3.37,0,5.1,1.27,5.21,3.83q.41,8.4-13,18.25-.63,5.47-.79,10.12l-6.93,2.4c0-.66.28-2.66.69-6l1.29-10.64q1.7-14.69,1.45-15.11a40.25,40.25,0,0,1,11.14-2.8l1,0M24.91,64.16c2.66-1.53,4.35-3.08,5.05-4.64a1.3,1.3,0,0,0,.14-.59c0-.46-.35-.69-1-.69h-.19a13,13,0,0,0-3.28.93c-.16.84-.29,1.68-.42,2.52l-.33,2.47m6.81-15.57h0l-1,0a41.75,41.75,0,0,0-11.43,2.86l-1.11.41.49.85c0,.69-.2,3.61-1.48,14.67L15.89,78.05c-.41,3.33-.65,5.37-.7,6.07l-.11,1.51,1.44-.5,6.93-2.39.65-.23,0-.69c.1-2.93.35-6.16.73-9.61,9.08-6.74,13.36-12.91,13.08-18.84-.09-2.18-1.24-4.78-6.21-4.78ZM26.54,59.9A10.14,10.14,0,0,1,29,59.24a8.57,8.57,0,0,1-2.8,2.92l0-.34c.1-.64.2-1.28.31-1.92Z"/><path class="cls-5" d="M41.69,84.09c-3.11,0-5.47-1.73-7-5.12a16.7,16.7,0,0,1-1.39-5.89,27.82,27.82,0,0,1,.55-7,33,33,0,0,1,5-12c3.09-4.62,6.61-7.08,10.45-7.32a5.06,5.06,0,0,1,.54,0c3.09,0,5.42,1.72,6.94,5.13a17.28,17.28,0,0,1,1.44,6.06,28.33,28.33,0,0,1-.51,6.93,32.81,32.81,0,0,1-5,12c-3.09,4.58-6.59,7-10.41,7.27ZM48.44,58.8c-1.43.1-2.88,1.46-4.31,4.06a21.37,21.37,0,0,0-2.4,6.2,11.71,11.71,0,0,0-.21,2.79,4.26,4.26,0,0,0,1,2.62,2.85,2.85,0,0,0,2.24.94H45c1.51-.09,2.8-1,3.94-2.68a12.9,12.9,0,0,0,1.92-4.88,16.2,16.2,0,0,0-.06-6.4C50.18,58.8,49,58.8,48.58,58.8Z"/><path class="cls-4" d="M49.82,47.18c2.88,0,5,1.61,6.49,4.83A16.75,16.75,0,0,1,57.7,57.9a27.72,27.72,0,0,1-.5,6.8,32.17,32.17,0,0,1-5,11.82q-4.53,6.7-10,7l-.52,0c-2.91,0-5.09-1.61-6.56-4.83a16.12,16.12,0,0,1-1.34-5.71,27.25,27.25,0,0,1,.54-6.9,32.52,32.52,0,0,1,4.91-11.86q4.53-6.74,10.07-7.09a4.52,4.52,0,0,1,.51,0m-5.1,28.73H45A5.65,5.65,0,0,0,49.34,73a13.41,13.41,0,0,0,2-5.07,16.64,16.64,0,0,0-.06-6.6q-.7-3-2.7-3h-.17c-1.62.1-3.2,1.54-4.72,4.31A21.87,21.87,0,0,0,41.24,69,12.2,12.2,0,0,0,41,71.88,4.81,4.81,0,0,0,42.1,74.8a3.36,3.36,0,0,0,2.62,1.11m5.1-29.73a5.52,5.52,0,0,0-.57,0c-4,.25-7.66,2.79-10.84,7.54A33.5,33.5,0,0,0,33.35,66a27.85,27.85,0,0,0-.56,7.15,17.18,17.18,0,0,0,1.43,6.06c1.64,3.6,4.15,5.42,7.47,5.42l.58,0c4-.25,7.61-2.77,10.8-7.49A33.43,33.43,0,0,0,58.18,64.9a28.49,28.49,0,0,0,.52-7.07,17.86,17.86,0,0,0-1.48-6.23c-1.61-3.6-4.1-5.42-7.4-5.42Zm-5.1,28.73a2.38,2.38,0,0,1-1.88-.78A3.86,3.86,0,0,1,42,71.81a10.72,10.72,0,0,1,.21-2.66,20.64,20.64,0,0,1,2.33-6c1.33-2.42,2.68-3.73,3.91-3.81h.11c.3,0,1.2,0,1.72,2.26a15.65,15.65,0,0,1,.06,6.18,12.29,12.29,0,0,1-1.85,4.7A4.7,4.7,0,0,1,45,74.91Z"/><path class="cls-6" d="M58.11,81.61a239.43,239.43,0,0,0,.15-30.7l0-.42,9.38-2.39-.37,14.43,3.33-16.59L76,44.78l-1,21,3.36-17.81,9.7-2.13-.25.82a191.44,191.44,0,0,0-7,31.47l0,.34L70,81l.42-11-2,9.78L58.07,82.29Z"/><path class="cls-4" d="M75.49,45.4,74.14,73l4.64-24.63,8.54-1.87a191.17,191.17,0,0,0-7,31.55l-9.83,2.31L71.14,64,68,79.31l-9.35,2.33a236.76,236.76,0,0,0,.15-30.76l8.33-2.14-.5,19.56L71,46.36l4.49-1m1.07-1.24-1.28.27-4.49,1-.64.14-.13.64L67.89,56.77l.2-8,0-1.32-1.29.33-8.33,2.13-.8.2,0,.83a238.5,238.5,0,0,1-.15,30.64l-.08,1.36,1.32-.33,9.35-2.33.61-.15.13-.62.74-3.59-.16,4.4,0,1.31,1.28-.3L80.58,79l.68-.16.09-.68a191.2,191.2,0,0,1,6.92-31.39l.51-1.64-1.68.37-8.53,1.88-.65.14-.12.65-2,10.33.64-13.06.07-1.29Z"/><path class="cls-7" d="M90.08,80.85a9.66,9.66,0,0,1-4.31-1.07l-.39-.2.14-.41c.63-1.84,1.66-4.56,3.06-8.11l.22-.54.5.3a4.86,4.86,0,0,0,2.5.72h.3a4.6,4.6,0,0,0,1.31-.28,11.5,11.5,0,0,0,2.46-1.14c.95-.61,1.45-1.18,1.41-1.66,0-.16,0-.53-1.06-.53h-.29a18.36,18.36,0,0,0-3.49.72,19.39,19.39,0,0,1-3.69.76h-.52a4.43,4.43,0,0,1-2.34-.55,3.92,3.92,0,0,1-1.88-4c.18-3.4,2.11-7.47,5.73-12.09C93.51,48,96.79,45.43,99.79,45a5.14,5.14,0,0,1,.66-.05c2.67,0,4.16,2.18,4.43,6.47a32.61,32.61,0,0,1,0,3.57l0,.31-.28.13-3.28,1.49-3.92,1.81,0-.73c0-.71-.21-1.55-.71-1.55a4.12,4.12,0,0,0-2.85,1.88,3,3,0,0,0-.71,2.32c.05.23.36.35.93.35h.28a11.21,11.21,0,0,0,2.11-.39A16.59,16.59,0,0,1,99.84,60l.64,0c2.36,0,3.83.9,4.38,2.67a8.07,8.07,0,0,1,.3,1.79,12,12,0,0,1-1.8,6.54,23.17,23.17,0,0,1-7.42,7.9,10.64,10.64,0,0,1-5.31,2Z"/><path class="cls-4" d="M100.45,45.47q3.55,0,3.93,6a34.32,34.32,0,0,1,0,3.52c-.93.41-2,.91-3.29,1.5L97.84,58c-.09-1.35-.49-2-1.21-2h-.08a4.56,4.56,0,0,0-3.17,2.08,3.38,3.38,0,0,0-.8,2.72c.11.5.58.75,1.42.75h.32a12.42,12.42,0,0,0,2.2-.41,17.11,17.11,0,0,1,3.35-.61l.61,0q3.18,0,3.9,2.32a8,8,0,0,1,.29,1.68,11.39,11.39,0,0,1-1.75,6.26,22.53,22.53,0,0,1-7.26,7.72,10.12,10.12,0,0,1-5.06,1.88l-.52,0a9.09,9.09,0,0,1-4.09-1c.63-1.82,1.65-4.52,3.06-8.08A5.26,5.26,0,0,0,91.8,72h.33a5.17,5.17,0,0,0,1.45-.31,11.85,11.85,0,0,0,2.55-1.19c1.15-.72,1.7-1.43,1.65-2.11s-.56-1-1.56-1h-.33a18.71,18.71,0,0,0-3.58.74,19.44,19.44,0,0,1-3.59.74h-.49a4,4,0,0,1-2.08-.48,3.44,3.44,0,0,1-1.65-3.5q.27-5,5.63-11.81,5.49-7,9.73-7.62c.2,0,.4,0,.59,0m0-1h0a6.09,6.09,0,0,0-.72.05c-3.14.43-6.53,3-10.39,8-3.68,4.71-5.65,8.87-5.83,12.37a4.4,4.4,0,0,0,2.14,4.43,5,5,0,0,0,2.58.61h.27l-.38,1c-1.4,3.54-2.43,6.28-3.07,8.12l-.29.83.79.4a10.17,10.17,0,0,0,4.53,1.12l.59,0a11.21,11.21,0,0,0,5.55-2,23.6,23.6,0,0,0,7.58-8.07,12.36,12.36,0,0,0,1.86-6.81,8.89,8.89,0,0,0-.32-1.89c-.43-1.4-1.62-3-4.86-3l-.68,0a17.83,17.83,0,0,0-3.55.65,11.44,11.44,0,0,1-2,.37H94a1.67,1.67,0,0,1-.46-.05,2.61,2.61,0,0,1,.65-1.83A3.67,3.67,0,0,1,96.6,57a2.25,2.25,0,0,1,.24,1.08l.09,1.46,1.33-.61,3.25-1.5c1.26-.59,2.36-1.08,3.28-1.5l.56-.25,0-.61c.06-1.34.06-2.56,0-3.63-.37-5.73-2.88-6.94-4.93-6.94ZM88.75,69.91h0a19,19,0,0,0,3.79-.77A18.24,18.24,0,0,1,96,68.42h.26a1.53,1.53,0,0,1,.56.07c0,.21-.28.63-1.18,1.2a11,11,0,0,1-2.33,1.08,4.06,4.06,0,0,1-1.2.26H91.8a4.29,4.29,0,0,1-2.24-.65l-.81-.48Z"/><path class="cls-8" d="M106.51,78.55a235.84,235.84,0,0,0,.15-30.7l0-.42L116,45l-.37,14.44L119,42.88l5.45-1.16-1,21,3.36-17.81,9.69-2.13-.25.82A191.38,191.38,0,0,0,129.26,75l0,.34L118.4,77.93l.42-11.05-2,9.78-10.32,2.57Z"/><path class="cls-4" d="M123.9,42.34l-1.36,27.59,4.65-24.63,8.53-1.88a192.47,192.47,0,0,0-7,31.56l-9.84,2.31.62-16.39-3.17,15.35L107,78.58a236.76,236.76,0,0,0,.15-30.76l8.34-2.14L115,65.24l4.4-21.94,4.5-1M125,41.09l-1.27.27-4.49,1-.65.13-.13.65-2.13,10.6.21-8,0-1.32-1.28.32-8.33,2.14-.81.2.06.83A238.5,238.5,0,0,1,106,78.52l-.09,1.36,1.33-.33,9.35-2.33.61-.15.13-.62.74-3.59-.17,4.39,0,1.32,1.28-.3L129,76l.67-.16.09-.69a192.41,192.41,0,0,1,6.93-31.38l.5-1.64-1.67.37L127,44.32l-.64.15-.13.64-2,10.34.65-13.06.06-1.3Z"/><path class="cls-9" d="M129.1,77.4a288.21,288.21,0,0,0,8.52-32.71l.06-.32L152,41l-.08.7a178.91,178.91,0,0,0-.07,31.88l0,.4-10.34,3.09.32-5.62-2,.51-.68,4-10.42,2.27Zm12.14-12.72,1-.28.49-8.39Z"/><path class="cls-4" d="M151.47,41.67a177.83,177.83,0,0,0-.08,32l-9.27,2.77.31-5.59-2.94.77-.68,4-9.23,2a289.06,289.06,0,0,0,8.53-32.76l13.36-3.12m-7.72,6.24h-.05l-3.08,17.45,2.15-.56,1-16.89m8.86-7.53-1.37.32-13.36,3.11-.63.15-.12.64a287.77,287.77,0,0,1-8.51,32.65l-.53,1.65,1.7-.37,9.23-2,.66-.14.12-.67.57-3.33,1-.25-.24,4.22L141,77.77l1.36-.41,9.28-2.77.77-.23-.06-.8a177.78,177.78,0,0,1,.07-31.78l.15-1.4Z"/><path class="cls-10" d="M151.63,75.56c0-.66.27-2.64.69-6l1.29-10.65C155,47.11,155.12,44.48,155.08,44l-.26-.44.56-.21a41.49,41.49,0,0,1,11.29-2.83l1,0c4.57,0,5.62,2.34,5.71,4.31.27,5.71-4.13,12-13.05,18.54-.41,3.54-.66,6.86-.76,9.87v.34l-8,2.76ZM162,50.94c-.14.74-.26,1.48-.37,2.22l-.19,1.44a10.1,10.1,0,0,0,4-3.89,1,1,0,0,0,.1-.34c0-.1,0-.23-.48-.23h-.15A10.85,10.85,0,0,0,162,50.94Z"/><path class="cls-4" d="M167.66,41q5,0,5.21,3.83.39,8.4-13,18.25c-.43,3.65-.69,7-.79,10.12l-6.94,2.4c0-.65.28-2.66.69-6l1.29-10.65q1.69-14.68,1.45-15.11A40.66,40.66,0,0,1,166.7,41l1,0m-6.82,14.57c2.67-1.53,4.35-3.08,5.06-4.64a1.41,1.41,0,0,0,.14-.59c0-.46-.36-.69-1-.69h-.18a12.37,12.37,0,0,0-3.28.92q-.24,1.26-.42,2.52l-.34,2.47M167.66,40l-1,0a41.83,41.83,0,0,0-11.43,2.86l-1.11.42.5.85c0,.69-.2,3.61-1.48,14.67l-1.29,10.64c-.42,3.47-.64,5.39-.69,6.06L151,77l1.43-.49,6.94-2.4.65-.23,0-.68c.09-2.94.34-6.17.73-9.61,9.08-6.75,13.36-12.91,13.07-18.85-.09-2.18-1.24-4.78-6.2-4.78Zm-5.18,11.32a9.52,9.52,0,0,1,2.44-.66,8.55,8.55,0,0,1-2.8,2.92l0-.35c.09-.63.2-1.28.31-1.91Z"/></g></g></svg>